<svg width="30" height="30" viewBox="0 0 30 30" fill="none" xmlns="http://www.w3.org/2000/svg">
<g id="shopping_cart">
<mask id="mask0_290_2393" style="mask-type:alpha" maskUnits="userSpaceOnUse" x="0" y="0" width="30" height="30">
<rect id="Bounding box" width="30" height="30" transform="matrix(-1 0 0 1 30 0)" fill="#D9D9D9"/>
</mask>
<g mask="url(#mask0_290_2393)">
<path id="shopping_cart_2" d="M21.0577 26.947C21.665 26.947 22.1815 26.7343 22.6069 26.3088C23.0324 25.8834 23.2452 25.3669 23.2452 24.7596C23.2452 24.1522 23.0324 23.6358 22.6069 23.2103C22.1815 22.7848 21.665 22.5721 21.0577 22.5721C20.4503 22.5721 19.9339 22.7848 19.5084 23.2103C19.0829 23.6358 18.8702 24.1522 18.8702 24.7596C18.8702 25.3669 19.0829 25.8834 19.5084 26.3088C19.9339 26.7343 20.4503 26.947 21.0577 26.947ZM8.94231 26.947C9.54969 26.947 10.0661 26.7343 10.4916 26.3088C10.9171 25.8834 11.1298 25.3669 11.1298 24.7596C11.1298 24.1522 10.9171 23.6358 10.4916 23.2103C10.0661 22.7848 9.54969 22.5721 8.94231 22.5721C8.33496 22.5721 7.81854 22.7848 7.39306 23.2103C6.96758 23.6358 6.75484 24.1522 6.75484 24.7596C6.75484 25.3669 6.96758 25.8834 7.39306 26.3088C7.81854 26.7343 8.33496 26.947 8.94231 26.947ZM22.4808 7.18747L19.3125 13.8221H10.7909C10.7187 13.8221 10.6546 13.8041 10.5986 13.768C10.5425 13.7319 10.4944 13.6819 10.4543 13.6178L7.10097 7.524C7.05289 7.43585 7.04887 7.35773 7.08894 7.28963C7.129 7.2215 7.19711 7.18744 7.29328 7.18744L22.4808 7.18747ZM23.3798 5.31253H6.02409C5.51288 5.31253 5.12627 5.53007 4.86425 5.96516C4.60223 6.40026 4.58981 6.84457 4.827 7.29809L8.83175 14.5528C9.0369 14.9134 9.30813 15.1943 9.64547 15.3954C9.9828 15.5965 10.3526 15.697 10.7548 15.697H19.875L21.3221 18.3413C21.3862 18.4374 21.3882 18.5416 21.3281 18.6538C21.268 18.766 21.1779 18.8221 21.0577 18.8221H7.69231C7.42629 18.8221 7.20354 18.9118 7.02406 19.0913C6.84458 19.2708 6.75484 19.4935 6.75484 19.7596C6.75484 20.0256 6.84458 20.2483 7.02406 20.4278C7.20354 20.6073 7.42629 20.697 7.69231 20.697H21.0577C21.891 20.697 22.5172 20.3377 22.9363 19.6189C23.3553 18.9002 23.3702 18.1826 22.9807 17.4663L21.1971 14.2596L25.7452 4.68744H27.1875C27.4535 4.68744 27.6763 4.5977 27.8557 4.41822C28.0352 4.23874 28.125 4.01599 28.125 3.74997C28.125 3.48395 28.0353 3.2612 27.8558 3.08172C27.6763 2.90224 27.4535 2.8125 27.1875 2.8125H25.2765C25.0633 2.8125 24.8646 2.86899 24.6803 2.98197C24.496 3.09495 24.3558 3.254 24.2596 3.45913L23.3798 5.31253Z" fill="#1C1B1F"/>
</g>
</g>
</svg>
