<svg width="8" height="8" viewBox="0 0 8 8" fill="none" xmlns="http://www.w3.org/2000/svg">
<g id="two_wheeler">
<mask id="mask0_525_280" style="mask-type:alpha" maskUnits="userSpaceOnUse" x="0" y="0" width="8" height="8">
<rect id="Bounding box" width="8" height="8" fill="#D9D9D9"/>
</mask>
<g mask="url(#mask0_525_280)">
<path id="two_wheeler_2" d="M1.33333 6.33317C0.966667 6.33317 0.652778 6.20261 0.391667 5.9415C0.130556 5.68039 0 5.3665 0 4.99984C0 4.68317 0.101389 4.40261 0.304167 4.15817C0.506944 3.91373 0.766667 3.76095 1.08333 3.69984L0.85 3.49984H0V2.99984H1.5L2.33333 3.49984L3.66667 2.99984H4.71667L4.2 2.33317H3.33333V1.6665H4.51667L5.21667 2.5665L6.33333 1.99984V2.99984H5.56667L6.15 3.7665C6.23333 3.73317 6.31806 3.70817 6.40417 3.6915C6.49028 3.67484 6.57778 3.6665 6.66667 3.6665C7.03333 3.6665 7.34722 3.79706 7.60833 4.05817C7.86944 4.31928 8 4.63317 8 4.99984C8 5.3665 7.86944 5.68039 7.60833 5.9415C7.34722 6.20261 7.03333 6.33317 6.66667 6.33317C6.3 6.33317 5.98611 6.20261 5.725 5.9415C5.46389 5.68039 5.33333 5.3665 5.33333 4.99984C5.33333 4.84984 5.35972 4.704 5.4125 4.56234C5.46528 4.42067 5.53889 4.28873 5.63333 4.1665L5.46667 3.9665L4.33333 5.6665H3.33333L2.66667 5.08317C2.63889 5.43317 2.49722 5.729 2.24167 5.97067C1.98611 6.21234 1.68333 6.33317 1.33333 6.33317ZM1.33333 5.6665C1.51667 5.6665 1.67361 5.60123 1.80417 5.47067C1.93472 5.34011 2 5.18317 2 4.99984C2 4.8165 1.93472 4.65956 1.80417 4.529C1.67361 4.39845 1.51667 4.33317 1.33333 4.33317C1.15 4.33317 0.993056 4.39845 0.8625 4.529C0.731945 4.65956 0.666667 4.8165 0.666667 4.99984C0.666667 5.18317 0.731945 5.34011 0.8625 5.47067C0.993056 5.60123 1.15 5.6665 1.33333 5.6665ZM6.66667 5.6665C6.85 5.6665 7.00694 5.60123 7.1375 5.47067C7.26806 5.34011 7.33333 5.18317 7.33333 4.99984C7.33333 4.8165 7.26806 4.65956 7.1375 4.529C7.00694 4.39845 6.85 4.33317 6.66667 4.33317C6.48333 4.33317 6.32639 4.39845 6.19583 4.529C6.06528 4.65956 6 4.8165 6 4.99984C6 5.18317 6.06528 5.34011 6.19583 5.47067C6.32639 5.60123 6.48333 5.6665 6.66667 5.6665ZM3.98333 4.99984L4.86667 3.6665H3.78333L2.58333 4.1165L3.58333 4.99984H3.98333Z" fill="#F1F1F1"/>
</g>
</g>
</svg>
