<svg id="Layer_1" data-name="Layer 1" xmlns="http://www.w3.org/2000/svg" viewBox="0 0 40.65 77.49"><defs><style>.cls-1{fill:#2680ff;}</style></defs><g id="Thin-S"><path class="cls-1" d="M4.67,77.49A4.18,4.18,0,0,1,1.31,75.9,6.14,6.14,0,0,1,0,71.85V5.64A6.19,6.19,0,0,1,1.31,1.58,4.2,4.2,0,0,1,4.67,0H36a4.17,4.17,0,0,1,3.36,1.58,6.14,6.14,0,0,1,1.32,4.06V71.85a6.09,6.09,0,0,1-1.32,4.05A4.15,4.15,0,0,1,36,77.49Zm-2-9.89v4.25a2.62,2.62,0,0,0,.62,1.73,1.79,1.79,0,0,0,1.43.74H36a1.81,1.81,0,0,0,1.44-.74A2.61,2.61,0,0,0,38,71.85V67.6Zm0-3.16H38V13.05H2.62Zm0-54.55H38V5.64a2.64,2.64,0,0,0-.61-1.74A1.84,1.84,0,0,0,36,3.16H4.67a1.82,1.82,0,0,0-1.43.74,2.65,2.65,0,0,0-.62,1.74Z"/></g></svg>