<?xml version="1.0" encoding="utf-8"?>
<!-- Generator: Adobe Illustrator 25.2.3, SVG Export Plug-In . SVG Version: 6.00 Build 0)  -->
<svg version="1.1" id="Layer_1" xmlns="http://www.w3.org/2000/svg" xmlns:xlink="http://www.w3.org/1999/xlink" x="0px" y="0px"
	 viewBox="0 0 51.71 47.68" style="enable-background:new 0 0 51.71 47.68;" xml:space="preserve">
<style type="text/css">
	.st0{fill:none;stroke:#2680FF;stroke-width:3;stroke-miterlimit:10;}
	.st1{fill:none;stroke:#2680FF;stroke-width:4;stroke-miterlimit:10;}
	.st2{fill:#2680FF;}
</style>
<path class="st1" d="M49.7,14.87L49.7,14.87c0.01-0.16,0.01-0.33,0.01-0.49C49.71,7.75,44.12,2,37.22,2
	c-5.04,0-9.39,3.25-11.36,7.38h0C23.88,5.25,19.54,2,14.49,2C7.6,2,2,7.75,2,14.38c0,0.17,0.01,0.33,0.01,0.49h0
	c0,0-0.71,7.88,8.06,16.48c3.99,3.99,8.44,7.79,15.78,13.75c7.34-5.96,11.79-9.76,15.78-13.75C50.4,22.75,49.7,14.87,49.7,14.87z"/>
</svg>
