<svg width="128" height="128" viewBox="0 0 128 128" fill="none" xmlns="http://www.w3.org/2000/svg">
<g id="Party" clip-path="url(#clip0_1149_12348)">
<g id="Group">
<path id="Vector" d="M81.0247 117.654L73.1754 125.503L59.7256 112.053L67.5749 104.204L81.0247 117.654Z" fill="#B1DBFC"/>
<g id="Group_2">
<path id="Vector_2" d="M100.832 72.2175C100.907 65.6652 104.522 59.6347 110.266 56.48C113.067 54.941 114.83 51.9997 114.867 48.8037L124.866 48.9192C124.788 55.7162 121.038 61.9717 115.08 65.2445C112.493 66.6657 110.865 69.3817 110.831 72.3332L100.832 72.2175Z" fill="#2680FF"/>
</g>
<path id="Vector_3" d="M84.0967 90.75C87.4104 90.75 90.0967 88.0637 90.0967 84.75C90.0967 81.4363 87.4104 78.75 84.0967 78.75C80.783 78.75 78.0967 81.4363 78.0967 84.75C78.0967 88.0637 80.783 90.75 84.0967 90.75Z" fill="#FFC107"/>
<g id="Group_3">
<g id="Group_4">
<path id="Vector_4" d="M27.1682 36.5665L46.8365 2.5H7.5L27.1682 36.5665Z" fill="#2680FF"/>
<path id="Vector_5" d="M100.832 36.5665L81.1636 2.5H120.5L100.832 36.5665Z" fill="#B1DBFC"/>
<path id="Vector_6" d="M64 36.5665L83.6683 2.5H44.3318L64 36.5665Z" fill="#FCEE21"/>
</g>
</g>
<path id="Vector_7" d="M16 64C20.4183 64 24 60.4183 24 56C24 51.5817 20.4183 48 16 48C11.5817 48 8 51.5817 8 56C8 60.4183 11.5817 64 16 64Z" fill="#FCEE21"/>
<g id="Group_5">
<path id="Vector_8" d="M25.9442 92.0308C30.524 96.7175 32.232 103.538 30.4017 109.83C29.509 112.899 30.342 116.225 32.5757 118.511L25.4235 125.5C20.6727 120.638 18.901 113.564 20.7997 107.037C21.624 104.203 20.8547 101.131 18.792 99.0195L25.9442 92.0308Z" fill="#2680FF"/>
</g>
<g id="Group_6">
<path id="Vector_9" d="M40.291 13.8372C41.487 14.528 43.0158 14.1182 43.706 12.9222L45.584 9.66925L61.8348 37.8165C62.2812 38.59 63.1065 39.0665 63.9997 39.0665C64.893 39.0665 65.7182 38.59 66.1647 37.8165L82.4155 9.66925L98.6663 37.8165C99.1128 38.59 99.938 39.0665 100.831 39.0665C101.725 39.0665 102.55 38.59 102.996 37.8165L121.943 5H125.5C126.881 5 128 3.8805 128 2.5C128 1.1195 126.881 0 125.5 0H2.5C1.11925 0 0 1.1195 0 2.5C0 3.8805 1.11925 5 2.5 5H6.05675L25.0035 37.8165C25.45 38.59 26.2753 39.0665 27.1685 39.0665C28.0618 39.0665 28.887 38.59 29.3335 37.8165L32.4562 32.4075C33.1467 31.2118 32.737 29.683 31.5413 28.9925C30.3455 28.3025 28.8165 28.7118 28.1262 29.9075L27.1685 31.5665L11.83 5H42.5065L39.376 10.422C38.6855 11.618 39.0952 13.1467 40.291 13.8372ZM64 31.5665L48.6618 5H79.3382L64 31.5665ZM100.832 31.5665L85.4935 5H116.17L100.832 31.5665Z" fill="black"/>
<path id="Vector_10" d="M52.7501 70.7068C51.0721 70.7068 49.7068 69.3416 49.7068 67.6636C49.7068 66.2831 48.5876 65.1636 47.2068 65.1636C45.8261 65.1636 44.7068 66.2831 44.7068 67.6636C44.7068 69.3416 43.3416 70.7068 41.6636 70.7068C40.2828 70.7068 39.1636 71.8263 39.1636 73.2068C39.1636 74.5873 40.2828 75.7068 41.6636 75.7068C43.3416 75.7068 44.7068 77.0721 44.7068 78.7501C44.7068 80.1306 45.8261 81.2501 47.2068 81.2501C48.5876 81.2501 49.7068 80.1306 49.7068 78.7501C49.7068 77.0721 51.0721 75.7068 52.7501 75.7068C54.1308 75.7068 55.2501 74.5873 55.2501 73.2068C55.2501 71.8263 54.1308 70.7068 52.7501 70.7068Z" fill="black"/>
<path id="Vector_11" d="M118.049 104.619C116.371 104.619 115.005 103.254 115.005 101.576C115.005 100.195 113.886 99.0757 112.505 99.0757C111.125 99.0757 110.005 100.195 110.005 101.576C110.005 103.254 108.64 104.619 106.962 104.619C105.581 104.619 104.462 105.738 104.462 107.119C104.462 108.499 105.581 109.619 106.962 109.619C108.64 109.619 110.005 110.984 110.005 112.662C110.005 114.043 111.125 115.162 112.505 115.162C113.886 115.162 115.005 114.043 115.005 112.662C115.005 110.984 116.371 109.619 118.049 109.619C119.429 109.619 120.549 108.499 120.549 107.119C120.549 105.738 119.429 104.619 118.049 104.619Z" fill="black"/>
<path id="Vector_12" d="M86.1399 40.4624C86.1399 39.0819 85.0207 37.9624 83.6399 37.9624C82.2592 37.9624 81.1399 39.0819 81.1399 40.4624C81.1399 42.1294 79.7924 43.4879 78.1292 43.5054C78.1184 43.5054 78.1077 43.5054 78.0969 43.5054V43.5057H78.0964C76.7159 43.5057 75.5967 44.6252 75.5967 46.0057C75.5967 47.3864 76.7162 48.5057 78.0967 48.5057C79.7747 48.5057 81.1399 49.8707 81.1399 51.5487C81.1399 52.9292 82.2592 54.0487 83.6399 54.0487C85.0207 54.0487 86.1399 52.9292 86.1399 51.5487C86.1399 49.8817 87.4874 48.5232 89.1507 48.5057H89.1829V48.5054H89.1834C90.5639 48.5054 91.6832 47.3859 91.6832 46.0054C91.6832 44.6247 90.5637 43.5054 89.1832 43.5054C87.5052 43.5054 86.1399 42.1404 86.1399 40.4624Z" fill="black"/>
<path id="Vector_13" d="M84.0967 76.25C79.4097 76.25 75.5967 80.063 75.5967 84.75C75.5967 89.437 79.4097 93.25 84.0967 93.25C88.7837 93.25 92.5967 89.437 92.5967 84.75C92.5967 80.063 88.7837 76.25 84.0967 76.25ZM84.0967 88.25C82.1667 88.25 80.5967 86.68 80.5967 84.75C80.5967 82.82 82.1667 81.25 84.0967 81.25C86.0267 81.25 87.5967 82.82 87.5967 84.75C87.5967 86.68 86.0267 88.25 84.0967 88.25Z" fill="black"/>
<path id="Vector_14" d="M26.5 56C26.5 50.2102 21.7897 45.5 16 45.5C10.2102 45.5 5.5 50.2102 5.5 56C5.5 61.7897 10.2102 66.5 16 66.5C21.7897 66.5 26.5 61.7897 26.5 56ZM16 61.5C12.9672 61.5 10.5 59.0328 10.5 56C10.5 52.9672 12.9672 50.5 16 50.5C19.0328 50.5 21.5 52.9672 21.5 56C21.5 59.0328 19.0328 61.5 16 61.5Z" fill="black"/>
<path id="Vector_15" d="M69.3223 102.43C68.8535 101.961 68.2175 101.698 67.5545 101.698C66.8915 101.698 66.2555 101.961 65.7868 102.43L57.9365 110.281C56.9603 111.257 56.9603 112.84 57.9365 113.816L71.3883 127.268C71.8765 127.756 72.5163 128 73.156 128C73.7958 128 74.4358 127.756 74.9238 127.268L82.774 119.418C83.7503 118.442 83.7503 116.859 82.774 115.882L69.3223 102.43ZM73.156 121.964L63.2398 112.048L67.5545 107.733L77.4708 117.65L73.156 121.964Z" fill="black"/>
<path id="Vector_16" d="M124.895 46.4196L114.896 46.3039C114.232 46.2964 113.594 46.5521 113.12 47.0156C112.646 47.4791 112.375 48.1119 112.367 48.7749C112.341 51.0706 111.074 53.1834 109.062 54.2889C102.529 57.8771 98.418 64.7359 98.332 72.1889C98.3162 73.5694 99.4222 74.7016 100.803 74.7174L110.802 74.8331C110.812 74.8334 110.822 74.8334 110.832 74.8334C112.199 74.8334 113.315 73.7331 113.331 72.3624C113.355 70.3111 114.486 68.4234 116.284 67.4359C123.031 63.7299 127.278 56.6459 127.366 48.9484C127.382 47.5676 126.276 46.4354 124.895 46.4196ZM113.876 63.0534C111.247 64.4976 109.377 66.9669 108.657 69.8079L103.561 69.7491C104.37 65.0949 107.255 60.9856 111.469 58.6711C114.314 57.1081 116.323 54.4169 117.059 51.3294L122.145 51.3881C121.328 56.2879 118.305 60.6206 113.876 63.0534Z" fill="black"/>
<path id="Vector_17" d="M32.8023 110.528C34.884 103.371 32.9413 95.6138 27.7323 90.2828C26.7673 89.2953 25.1843 89.2776 24.197 90.2421L17.0448 97.2311C16.0573 98.1961 16.039 99.7788 17.0038 100.766C18.4373 102.234 18.972 104.369 18.3993 106.338C16.249 113.73 18.2553 121.741 23.6355 127.247C24.1253 127.748 24.7743 128 25.4235 128C26.0538 128 26.6843 127.763 27.1705 127.288L34.3228 120.299C35.3103 119.334 35.3285 117.751 34.3638 116.764C32.7593 115.122 32.161 112.732 32.8023 110.528ZM25.602 121.83C22.7153 117.787 21.789 112.586 23.2003 107.734C24.038 104.854 23.6143 101.786 22.1145 99.2678L25.7595 95.7061C28.4788 99.5688 29.3438 104.515 28.001 109.131C27.0945 112.248 27.5763 115.572 29.2398 118.275L25.602 121.83Z" fill="black"/>
<path id="Vector_18" d="M35.9175 23.9141C37.2982 23.9141 38.4175 22.7948 38.4175 21.4141C38.4175 20.0334 37.2982 18.9141 35.9175 18.9141C34.5368 18.9141 33.4175 20.0334 33.4175 21.4141C33.4175 22.7948 34.5368 23.9141 35.9175 23.9141Z" fill="black"/>
</g>
</g>
</g>
<defs>
<clipPath id="clip0_1149_12348">
<rect width="128" height="128" fill="white"/>
</clipPath>
</defs>
</svg>
