<?xml version="1.0" encoding="utf-8"?>
<!-- Generator: Adobe Illustrator 25.2.3, SVG Export Plug-In . SVG Version: 6.00 Build 0)  -->
<svg version="1.1" id="Layer_1" xmlns="http://www.w3.org/2000/svg" xmlns:xlink="http://www.w3.org/1999/xlink" x="0px" y="0px"
	 viewBox="0 0 58.86 64.86" style="enable-background:new 0 0 58.86 64.86;" xml:space="preserve">
<style type="text/css">
	.st0{fill:none;stroke:#2680FF;stroke-width:3;stroke-miterlimit:10;}
	.st1{fill:none;stroke:#2680FF;stroke-width:4;stroke-miterlimit:10;}
	.st2{fill:#2680FF;}
</style>
<path class="st2" d="M8.51,64.86c-2.38,0-4.39-0.82-6.04-2.47S0,58.72,0,56.34L0,0l4.86,4.86L9.73,0l4.86,4.86L19.46,0l4.86,4.86
	L29.19,0l4.86,4.86L38.83,0l4.86,4.86L48.56,0v46.21h10.3v10.13c0,2.38-0.82,4.39-2.47,6.04c-1.65,1.65-3.66,2.47-6.04,2.47H8.51z
	 M11.15,58.98c0.68-0.68,1.01-1.55,1.01-2.63V46.21H43.7V8.11H4.86v48.24c0,1.08,0.34,1.96,1.01,2.63c0.68,0.68,1.55,1.01,2.63,1.01
	S10.47,59.65,11.15,58.98z M19.94,20.92v-4.86H39.4v4.86H19.94z M19.94,31.78v-4.86H39.4v4.86H19.94z M10.7,20.19
	c-0.49-0.49-0.73-1.05-0.73-1.7c0-0.65,0.24-1.22,0.73-1.7c0.49-0.49,1.05-0.73,1.7-0.73c0.65,0,1.22,0.24,1.7,0.73
	c0.49,0.49,0.73,1.05,0.73,1.7c0,0.65-0.24,1.22-0.73,1.7c-0.49,0.49-1.05,0.73-1.7,0.73C11.76,20.92,11.19,20.67,10.7,20.19z
	 M10.7,30.64c-0.49-0.49-0.73-1.05-0.73-1.7c0-0.65,0.24-1.22,0.73-1.7c0.49-0.49,1.05-0.73,1.7-0.73s1.22,0.24,1.7,0.73
	c0.49,0.49,0.73,1.05,0.73,1.7c0,0.65-0.24,1.22-0.73,1.7c-0.49,0.49-1.05,0.73-1.7,0.73S11.19,31.13,10.7,30.64z M52.98,58.98
	c0.68-0.68,1.01-1.55,1.01-2.63v-5.27H17.02v8.92h33.4C51.45,59.99,52.3,59.65,52.98,58.98z M53.99,51.07v8.92V51.07z"/>
</svg>
