<?xml version="1.0" encoding="utf-8"?>
<!-- Generator: Adobe Illustrator 25.2.3, SVG Export Plug-In . SVG Version: 6.00 Build 0)  -->
<svg version="1.1" id="Layer_1" xmlns="http://www.w3.org/2000/svg" xmlns:xlink="http://www.w3.org/1999/xlink" x="0px" y="0px"
	 viewBox="0 0 45.4 62.21" style="enable-background:new 0 0 45.4 62.21;" xml:space="preserve">
<style type="text/css">
	.st0{fill:none;stroke:#2680FF;stroke-width:3;stroke-miterlimit:10;}
	.st1{fill:none;stroke:#2680FF;stroke-width:4;stroke-miterlimit:10;}
	.st2{fill:#2680FF;}
</style>
<path class="st2" d="M2.55,41.57c-0.95-1.7-1.61-3.42-1.99-5.14C0.19,34.7,0,32.94,0,31.14c0-6.2,2.23-11.53,6.7-16s9.8-6.7,16-6.7
	h3.05l-5.68-5.68L22.84,0l10.57,10.57L22.84,21.14L20,18.3l5.6-5.6H22.7c-5.06,0-9.4,1.81-13.02,5.43s-5.43,7.96-5.43,13.02
	c0,1.37,0.13,2.67,0.39,3.9c0.26,1.23,0.58,2.39,0.96,3.48L2.55,41.57z M22.42,62.21L11.85,51.64l10.57-10.57l2.77,2.77l-5.68,5.68
	h3.19c5.06,0,9.4-1.81,13.02-5.43c3.62-3.62,5.43-7.96,5.43-13.02c0-1.37-0.12-2.67-0.35-3.9c-0.24-1.23-0.59-2.39-1.06-3.48
	l3.05-3.05c0.95,1.7,1.62,3.42,2.02,5.14c0.4,1.73,0.6,3.49,0.6,5.28c0,6.2-2.23,11.53-6.7,16c-4.47,4.47-9.8,6.7-16,6.7h-3.19
	l5.68,5.68L22.42,62.21z"/>
</svg>
