<?xml version="1.0" encoding="utf-8"?>
<!-- Generator: Adobe Illustrator 25.2.3, SVG Export Plug-In . SVG Version: 6.00 Build 0)  -->
<svg version="1.1" id="Layer_1" xmlns="http://www.w3.org/2000/svg" xmlns:xlink="http://www.w3.org/1999/xlink" x="0px" y="0px"
	 viewBox="0 0 22 40.2" style="enable-background:new 0 0 22 40.2;" xml:space="preserve">
<style type="text/css">
	.st0{fill:#FFFFFF;}
	.st1{fill:#2680FF;}
	.st2{fill:#FAAD17;}
	.st3{fill:none;stroke:#B2B2B2;stroke-width:5;stroke-miterlimit:10;}
	.st4{fill:none;stroke:#2680FF;stroke-width:5;stroke-miterlimit:10;}
	.st5{fill:#B2B2B2;}
	.st6{fill:#4D4D4D;}
	.st7{fill:none;stroke:#2680FF;stroke-width:4;stroke-miterlimit:10;}
</style>
<g id="Thin-S_9_" transform="matrix(1 0 0 1 814.015 696)">
	<g>
		<path class="st6" d="M-814-675.9c0-0.4,0.1-0.8,0.2-1.2c0.2-0.4,0.5-0.8,0.9-1.3l16.9-16.9c0.5-0.5,1.1-0.8,1.7-0.7
			c0.6,0,1.1,0.3,1.5,0.7c0.6,0.5,0.9,1,0.8,1.6c0,0.5-0.3,1-0.8,1.5l-16.3,16.3l16.3,16.3c0.5,0.5,0.7,0.9,0.7,1.5
			c0,0.5-0.2,1.1-0.8,1.6c-0.5,0.5-1,0.8-1.5,0.8c-0.6,0-1.1-0.3-1.5-0.8l-16.9-16.9c-0.5-0.5-0.8-0.9-0.9-1.3
			C-813.9-675.1-814-675.5-814-675.9z"/>
	</g>
</g>
</svg>
