<svg width="8" height="8" viewBox="0 0 8 8" fill="none" xmlns="http://www.w3.org/2000/svg">
<g id="distance">
<mask id="mask0_371_2826" style="mask-type:alpha" maskUnits="userSpaceOnUse" x="0" y="0" width="8" height="8">
<rect id="Bounding box" width="8" height="8" fill="#D9D9D9"/>
</mask>
<g mask="url(#mask0_371_2826)">
<path id="distance_2" d="M4 7.33366C3.41111 7.33366 2.93056 7.2406 2.55833 7.05449C2.18611 6.86838 2 6.6281 2 6.33366C2 6.13921 2.08056 5.96977 2.24167 5.82533C2.40278 5.68088 2.625 5.56699 2.90833 5.48366L3.1 6.11699C3.00556 6.14477 2.91944 6.17949 2.84167 6.22116C2.76389 6.26283 2.71111 6.30033 2.68333 6.33366C2.75556 6.42255 2.92222 6.50033 3.18333 6.56699C3.44444 6.63366 3.71667 6.66699 4 6.66699C4.28333 6.66699 4.55694 6.63366 4.82083 6.56699C5.08472 6.50033 5.25278 6.42255 5.325 6.33366C5.29722 6.30033 5.24444 6.26283 5.16667 6.22116C5.08889 6.17949 5.00278 6.14477 4.90833 6.11699L5.1 5.48366C5.38333 5.56699 5.60417 5.68088 5.7625 5.82533C5.92083 5.96977 6 6.13921 6 6.33366C6 6.6281 5.81389 6.86838 5.44167 7.05449C5.06944 7.2406 4.58889 7.33366 4 7.33366ZM4 5.10866C4.1 4.92533 4.20556 4.75727 4.31667 4.60449C4.42778 4.45171 4.53611 4.30588 4.64167 4.16699C4.84722 3.90033 5.01111 3.66005 5.13333 3.44616C5.25556 3.23227 5.31667 2.96699 5.31667 2.65033C5.31667 2.28366 5.18889 1.97255 4.93333 1.71699C4.67778 1.46144 4.36667 1.33366 4 1.33366C3.63333 1.33366 3.32222 1.46144 3.06667 1.71699C2.81111 1.97255 2.68333 2.28366 2.68333 2.65033C2.68333 2.96699 2.74444 3.23227 2.86667 3.44616C2.98889 3.66005 3.15278 3.90033 3.35833 4.16699C3.46389 4.30588 3.57222 4.45171 3.68333 4.60449C3.79444 4.75727 3.9 4.92533 4 5.10866ZM4 6.33366C3.93889 6.33366 3.88333 6.3156 3.83333 6.27949C3.78333 6.24338 3.74722 6.19477 3.725 6.13366C3.59722 5.73921 3.43611 5.40866 3.24167 5.14199C3.04722 4.87533 2.85833 4.61977 2.675 4.37533C2.49722 4.13088 2.34306 3.8781 2.2125 3.61699C2.08194 3.35588 2.01667 3.03366 2.01667 2.65033C2.01667 2.09477 2.20833 1.62533 2.59167 1.24199C2.975 0.858659 3.44444 0.666992 4 0.666992C4.55556 0.666992 5.025 0.858659 5.40833 1.24199C5.79167 1.62533 5.98333 2.09477 5.98333 2.65033C5.98333 3.03366 5.91944 3.35588 5.79167 3.61699C5.66389 3.8781 5.50833 4.13088 5.325 4.37533C5.14722 4.61977 4.95972 4.87533 4.7625 5.14199C4.56528 5.40866 4.40278 5.73921 4.275 6.13366C4.25278 6.19477 4.21667 6.24338 4.16667 6.27949C4.11667 6.3156 4.06111 6.33366 4 6.33366ZM4 3.35866C4.19444 3.35866 4.36111 3.28921 4.5 3.15033C4.63889 3.01144 4.70833 2.84477 4.70833 2.65033C4.70833 2.45588 4.63889 2.28921 4.5 2.15033C4.36111 2.01144 4.19444 1.94199 4 1.94199C3.80556 1.94199 3.63889 2.01144 3.5 2.15033C3.36111 2.28921 3.29167 2.45588 3.29167 2.65033C3.29167 2.84477 3.36111 3.01144 3.5 3.15033C3.63889 3.28921 3.80556 3.35866 4 3.35866Z" fill="white"/>
</g>
</g>
</svg>
