<?xml version="1.0" encoding="utf-8"?>
<!-- Generator: Adobe Illustrator 25.2.3, SVG Export Plug-In . SVG Version: 6.00 Build 0)  -->
<svg version="1.1" id="Layer_1" xmlns="http://www.w3.org/2000/svg" xmlns:xlink="http://www.w3.org/1999/xlink" x="0px" y="0px"
	 viewBox="0 0 62.26 45.28" style="enable-background:new 0 0 62.26 45.28;" xml:space="preserve">
<style type="text/css">
	.st0{fill:none;stroke:#2680FF;stroke-width:3;stroke-miterlimit:10;}
	.st1{fill:none;stroke:#2680FF;stroke-width:4;stroke-miterlimit:10;}
	.st2{fill:#2680FF;}
</style>
<path class="st2" d="M35.38,26.89c-2.36,0-4.36-0.83-6.01-2.48s-2.48-3.66-2.48-6.01s0.83-4.36,2.48-6.01s3.66-2.48,6.01-2.48
	s4.36,0.83,6.01,2.48s2.48,3.66,2.48,6.01s-0.83,4.36-2.48,6.01S37.73,26.89,35.38,26.89z M12.74,36.79c-1.18,0-2.18-0.41-3.01-1.24
	s-1.24-1.83-1.24-3.01V4.25c0-1.18,0.41-2.18,1.24-3.01S11.56,0,12.74,0h45.28c1.18,0,2.18,0.41,3.01,1.24s1.24,1.83,1.24,3.01v28.3
	c0,1.18-0.41,2.18-1.24,3.01s-1.83,1.24-3.01,1.24H12.74z M19.81,32.55h31.13c0-1.98,0.68-3.66,2.05-5.02
	c1.37-1.37,3.04-2.05,5.02-2.05V11.32c-1.98,0-3.66-0.68-5.02-2.05c-1.37-1.37-2.05-3.04-2.05-5.02H19.81
	c0,1.98-0.68,3.66-2.05,5.02c-1.37,1.37-3.04,2.05-5.02,2.05v14.15c1.98,0,3.66,0.68,5.02,2.05C19.13,28.89,19.81,30.56,19.81,32.55
	z M53.77,45.28H4.25c-1.18,0-2.18-0.41-3.01-1.24S0,42.22,0,41.04V8.49h4.25v32.55h49.53V45.28z M12.74,32.55V4.25V32.55z"/>
</svg>
