<?xml version="1.0" encoding="utf-8"?>
<!-- Generator: Adobe Illustrator 25.2.3, SVG Export Plug-In . SVG Version: 6.00 Build 0)  -->
<svg version="1.1" id="Layer_1" xmlns="http://www.w3.org/2000/svg" xmlns:xlink="http://www.w3.org/1999/xlink" x="0px" y="0px"
	 viewBox="0 0 53.44 62.34" style="enable-background:new 0 0 53.44 62.34;" xml:space="preserve">
<style type="text/css">
	.st0{fill:#2680FF;}
	.st1{fill:none;stroke:url(#SVGID_1_);stroke-width:8;stroke-miterlimit:10;}
	.st2{fill:none;stroke:#2680FF;stroke-width:8;stroke-miterlimit:10;}
	.st3{fill:#CCCCCC;}
	.st4{fill:#69B76B;}
	.st5{fill:none;stroke:#FFFFFF;stroke-width:5;stroke-linecap:round;stroke-miterlimit:10;}
</style>
<path class="st0" d="M48.98,62.34H4.45c-1.19,0-2.23-0.45-3.12-1.34C0.45,60.12,0,59.08,0,57.89V18.55c0-1.19,0.45-2.23,1.34-3.12
	c0.89-0.89,1.93-1.34,3.12-1.34h8.16c0-3.91,1.31-7.24,3.93-9.98S22.44,0,26.35,0s7.3,1.37,10.17,4.12c2.87,2.75,4.3,6.07,4.3,9.98
	h8.16c1.19,0,2.23,0.45,3.12,1.34c0.89,0.89,1.34,1.93,1.34,3.12v39.34c0,1.19-0.45,2.23-1.34,3.12
	C51.21,61.9,50.17,62.34,48.98,62.34z M17.07,14.1h19.3c0-2.72-0.93-5.01-2.78-6.87s-4.14-2.78-6.87-2.78s-5.01,0.93-6.87,2.78
	S17.07,11.38,17.07,14.1z M48.98,57.89V18.55H4.45v39.34H48.98z M26.72,36.37c3.61,0,6.9-1.27,9.87-3.82
	c2.97-2.55,4.45-5.41,4.45-8.57c0-0.54-0.22-1.03-0.67-1.45c-0.45-0.42-0.99-0.63-1.63-0.63c-0.54,0-1.03,0.19-1.45,0.56
	c-0.42,0.37-0.68,0.85-0.78,1.45c-0.49,2.33-1.67,4.24-3.53,5.75c-1.86,1.51-3.95,2.26-6.27,2.26s-4.42-0.75-6.27-2.26
	c-1.86-1.51-3.03-3.43-3.53-5.75c-0.1-0.59-0.37-1.08-0.82-1.45c-0.45-0.37-0.94-0.56-1.48-0.56c-0.59,0-1.11,0.21-1.56,0.63
	c-0.45,0.42-0.67,0.9-0.67,1.45c0,3.17,1.47,6.02,4.42,8.57C19.75,35.09,23.06,36.37,26.72,36.37z M4.45,18.55v39.34V18.55z"/>
</svg>
