<svg width="30" height="30" viewBox="0 0 30 30" fill="none" xmlns="http://www.w3.org/2000/svg">
<g id="storefront">
<mask id="mask0_290_2388" style="mask-type:alpha" maskUnits="userSpaceOnUse" x="0" y="0" width="30" height="30">
<rect id="Bounding box" width="30" height="30" fill="#D9D9D9"/>
</mask>
<g mask="url(#mask0_290_2388)">
<path id="storefront_2" d="M6.3412 25.9374C5.7098 25.9374 5.17536 25.7187 4.73786 25.2812C4.30036 24.8437 4.08161 24.3093 4.08161 23.6778V13.6923C3.5784 13.2788 3.20058 12.7423 2.94817 12.0829C2.69577 11.4234 2.69056 10.7115 2.93254 9.94709L4.19698 5.81728C4.36365 5.29166 4.6465 4.86778 5.04554 4.54566C5.44459 4.22355 5.92135 4.0625 6.47582 4.0625H23.5383C24.0928 4.0625 24.5664 4.21635 24.959 4.52403C25.3516 4.83172 25.6377 5.25479 25.8171 5.79325L27.1056 9.94709C27.3476 10.7115 27.3424 11.421 27.09 12.0757C26.8376 12.7303 26.4598 13.2772 25.9566 13.7163V23.6778C25.9566 24.3093 25.7378 24.8437 25.3003 25.2812C24.8628 25.7187 24.3284 25.9374 23.6969 25.9374H6.3412ZM17.7691 12.8125C18.4518 12.8125 18.965 12.6038 19.3088 12.1863C19.6525 11.7688 19.7931 11.3205 19.7306 10.8413L18.971 5.93744H15.9566V10.875C15.9566 11.4006 16.1345 11.8549 16.4902 12.238C16.846 12.621 17.2723 12.8125 17.7691 12.8125ZM12.1441 12.8125C12.7194 12.8125 13.1862 12.621 13.5444 12.238C13.9025 11.8549 14.0816 11.4006 14.0816 10.875V5.93744H11.0671L10.3075 10.8894C10.2402 11.3333 10.3796 11.7648 10.7258 12.1839C11.072 12.603 11.5447 12.8125 12.1441 12.8125ZM6.58157 12.8125C7.04472 12.8125 7.44297 12.651 7.77632 12.3281C8.10966 12.0052 8.31558 11.5993 8.39411 11.1106L9.1297 5.93744H6.47582C6.3396 5.93744 6.23142 5.96749 6.15129 6.02759C6.07115 6.0877 6.01104 6.17786 5.97098 6.29806L4.76907 10.3653C4.60399 10.9022 4.68171 11.4443 5.00223 11.9916C5.32275 12.5389 5.8492 12.8125 6.58157 12.8125ZM23.4566 12.8125C24.1329 12.8125 24.6505 12.5469 25.0095 12.0156C25.3685 11.4844 25.455 10.9343 25.2691 10.3653L24.0047 6.274C23.9646 6.15381 23.9045 6.06767 23.8244 6.01556C23.7443 5.96348 23.6361 5.93744 23.4999 5.93744H20.9085L21.6441 11.1106C21.7226 11.5993 21.9285 12.0052 22.2619 12.3281C22.5952 12.651 22.9934 12.8125 23.4566 12.8125ZM6.3412 24.0625H23.6969C23.8092 24.0625 23.9013 24.0264 23.9734 23.9543C24.0455 23.8822 24.0816 23.79 24.0816 23.6778V14.5769C23.9454 14.6265 23.8316 14.6574 23.7403 14.6694C23.6489 14.6814 23.5543 14.6874 23.4566 14.6874C22.8941 14.6874 22.3993 14.5857 21.9722 14.3822C21.5451 14.1786 21.1313 13.8525 20.7306 13.4038C20.3797 13.7948 19.9646 14.1065 19.4854 14.3389C19.0063 14.5713 18.4598 14.6874 17.846 14.6874C17.3156 14.6874 16.8156 14.5773 16.346 14.3569C15.8765 14.1366 15.4342 13.8188 15.0191 13.4038C14.6329 13.8188 14.1954 14.1366 13.7066 14.3569C13.2178 14.5773 12.7226 14.6874 12.221 14.6874C11.6569 14.6874 11.1281 14.5853 10.6345 14.381C10.1409 14.1766 9.70657 13.8509 9.33157 13.4038C8.80593 13.9294 8.32155 14.2748 7.87845 14.4398C7.43535 14.6049 7.00305 14.6874 6.58157 14.6874C6.48382 14.6874 6.38287 14.6814 6.2787 14.6694C6.17451 14.6574 6.06714 14.6265 5.95657 14.5769V23.6778C5.95657 23.79 5.99263 23.8822 6.06473 23.9543C6.13686 24.0264 6.22901 24.0625 6.3412 24.0625Z" fill="#1C1B1F"/>
</g>
</g>
</svg>
