<svg width="110" height="128" viewBox="0 0 110 128" fill="none" xmlns="http://www.w3.org/2000/svg">
<path d="M104.768 126.106H41.9329C40.0724 126.106 38.5642 124.584 38.5642 122.707V107.593H80.6027C85.6716 107.593 89.0375 103.946 89.0375 98.8311V29.1316C89.0375 23.9919 93.9206 19.8696 98.9587 19.8696C104.028 19.8696 108.137 24.0164 108.137 29.1316V29.1331V122.707C108.137 124.584 106.628 126.106 104.768 126.106Z" fill="#8BCAFF"/>
<path d="M97.7074 98.8309V29.1316C97.7074 25.5534 100.075 22.4701 103.213 20.9259C101.941 20.2526 100.494 19.8696 98.958 19.8696C93.9198 19.8696 89.0368 23.9919 89.0368 29.1316V98.8309C89.0368 103.946 85.6708 107.593 80.602 107.593H89.2726C94.3415 107.593 97.7074 103.946 97.7074 98.8309Z" fill="#2680FF"/>
<path d="M47.2373 122.707V107.593H38.5662V122.707C38.5662 124.585 40.0744 126.107 41.935 126.107H50.6062C48.7454 126.107 47.2373 124.585 47.2373 122.707Z" fill="#2680FF"/>
<path d="M89.7816 29.1316V98.8309C89.7816 103.946 85.6725 108.093 80.6036 108.093C75.5347 108.093 70.6824 103.946 70.6824 98.8309V98.8304C70.6824 97.0681 70.6824 41.8234 70.6824 19.8696H98.9593C93.8907 19.8696 89.7816 24.0164 89.7816 29.1316Z" fill="#B1DBFC"/>
<path d="M79.3536 98.8309V98.8304C79.3536 97.0679 79.3536 41.8234 79.3536 19.8696C75.1488 19.8696 71.6716 19.8696 70.6824 19.8696V98.8304V98.8309C70.6824 103.946 75.5348 108.093 80.6042 108.093C82.1397 108.093 83.5861 107.71 84.858 107.038C81.7124 105.49 79.3536 102.397 79.3536 98.8309Z" fill="#8BCAFF"/>
<path d="M11.034 108.093C11.033 108.093 11.032 108.093 11.031 108.093C5.96218 108.093 1.85304 103.946 1.85304 98.8309V5.56045C1.85304 3.51495 3.49625 1.85645 5.52345 1.85645H67.7551C69.7821 1.85645 71.4255 3.5147 71.4255 5.56045V98.8312C71.4255 103.946 75.5347 108.093 80.6035 108.093H11.034V108.093Z" fill="#DFEBFA"/>
<path d="M10.5237 98.8312V5.56068C10.5237 3.51518 12.1669 1.85693 14.1938 1.85693H5.5232C3.49625 1.85693 1.85304 3.51518 1.85304 5.56068V98.8314C1.85304 103.947 5.96218 108.093 11.031 108.093H11.034H19.7017C14.6328 108.093 10.5237 103.946 10.5237 98.8312Z" fill="#B1DBFC"/>
<path d="M0 5.57875V98.8495C0 104.99 4.95069 109.986 11.036 109.986H36.7118V122.725C36.7118 125.633 39.0565 128 41.9387 128H67.7807C68.807 128 69.6386 127.16 69.6386 126.125C69.6386 125.089 68.807 124.25 67.7807 124.25H41.9384C41.1053 124.25 40.4275 123.566 40.4275 122.725V109.986H80.6083C86.6933 109.986 91.6442 104.991 91.6442 98.8495V29.1502C91.6442 25.077 94.9279 21.7633 98.9643 21.7633C103 21.7633 106.284 25.077 106.284 29.1518V122.725C106.284 123.565 105.606 124.25 104.773 124.25H76.4513C75.4249 124.25 74.5933 125.089 74.5933 126.125C74.5933 127.16 75.4249 128 76.4513 128H104.773C107.655 128 110 125.633 110 122.725V29.15C110 23.0093 105.05 18.013 98.9643 18.013H73.2882V5.57875C73.2882 2.50275 70.8084 0 67.7601 0H5.5284C2.48005 0 0 2.50275 0 5.57875ZM73.2882 21.7633H90.7118C88.9635 23.749 87.9283 26.365 87.9283 29.1502V98.8497C87.9283 103.227 84.1672 106.641 79.8608 106.198C76.1743 105.819 73.2882 102.668 73.2882 98.8493V21.7633ZM3.71599 5.57875C3.71599 4.57025 4.5288 3.75 5.52815 3.75H67.7598C68.7592 3.75 69.572 4.57025 69.572 5.57875V98.8495C69.572 101.56 70.556 104.189 72.3555 106.236C67.6699 106.236 13.6355 106.236 11.0357 106.236C6.99944 106.236 3.71574 102.923 3.71574 98.8495L3.71599 5.57875Z" fill="black"/>
<path d="M54.4793 11.9351H62.5158C63.5422 11.9351 64.3739 11.0958 64.3739 10.0601C64.3739 9.02431 63.5422 8.18506 62.5158 8.18506H54.4793C53.4529 8.18506 52.6212 9.02431 52.6212 10.0601C52.6212 11.0958 53.4532 11.9351 54.4793 11.9351Z" fill="black"/>
<path d="M33.2104 52.0825H29.3233C28.2968 52.0825 27.4652 52.9218 27.4652 53.9575C27.4652 54.9933 28.2968 55.8325 29.3233 55.8325H33.2104C34.2368 55.8325 35.0685 54.9933 35.0685 53.9575C35.0685 52.9218 34.2368 52.0825 33.2104 52.0825Z" fill="black"/>
<path d="M13.8623 55.8325H21.9423C22.9687 55.8325 23.8004 54.9933 23.8004 53.9575C23.8004 52.9218 22.9687 52.0825 21.9423 52.0825H13.8623C12.8358 52.0825 12.0042 52.9218 12.0042 53.9575C12.0042 54.9933 12.8361 55.8325 13.8623 55.8325Z" fill="black"/>
<path d="M61.2659 52.0825H40.4021C39.3758 52.0825 38.5441 52.9218 38.5441 53.9575C38.5441 54.9933 39.3758 55.8325 40.4021 55.8325H61.2659C62.2923 55.8325 63.1239 54.9933 63.1239 53.9575C63.1239 52.9218 62.2923 52.0825 61.2659 52.0825Z" fill="black"/>
<path d="M33.2104 61.5269H29.3233C28.2968 61.5269 27.4652 62.3661 27.4652 63.4019C27.4652 64.4376 28.2968 65.2769 29.3233 65.2769H33.2104C34.2368 65.2769 35.0685 64.4376 35.0685 63.4019C35.0685 62.3661 34.2368 61.5269 33.2104 61.5269Z" fill="black"/>
<path d="M13.8623 65.2769H21.9423C22.9687 65.2769 23.8004 64.4376 23.8004 63.4019C23.8004 62.3661 22.9687 61.5269 21.9423 61.5269H13.8623C12.8358 61.5269 12.0042 62.3661 12.0042 63.4019C12.0042 64.4376 12.8361 65.2769 13.8623 65.2769Z" fill="black"/>
<path d="M61.2659 61.5269H40.4021C39.3758 61.5269 38.5441 62.3661 38.5441 63.4019C38.5441 64.4376 39.3758 65.2769 40.4021 65.2769H61.2659C62.2923 65.2769 63.1239 64.4376 63.1239 63.4019C63.1239 62.3661 62.2923 61.5269 61.2659 61.5269Z" fill="black"/>
<path d="M33.2104 70.9707H29.3233C28.2968 70.9707 27.4652 71.81 27.4652 72.8457C27.4652 73.8815 28.2968 74.7207 29.3233 74.7207H33.2104C34.2368 74.7207 35.0685 73.8815 35.0685 72.8457C35.0685 71.81 34.2368 70.9707 33.2104 70.9707Z" fill="black"/>
<path d="M13.8623 74.7207H21.9423C22.9687 74.7207 23.8004 73.8815 23.8004 72.8457C23.8004 71.81 22.9687 70.9707 21.9423 70.9707H13.8623C12.8358 70.9707 12.0042 71.81 12.0042 72.8457C12.0042 73.8815 12.8361 74.7207 13.8623 74.7207Z" fill="black"/>
<path d="M61.2659 70.9707H40.4021C39.3758 70.9707 38.5441 71.81 38.5441 72.8457C38.5441 73.8815 39.3758 74.7207 40.4021 74.7207H61.2659C62.2923 74.7207 63.1239 73.8815 63.1239 72.8457C63.1239 71.81 62.2923 70.9707 61.2659 70.9707Z" fill="black"/>
<path d="M33.2104 80.4146H29.3233C28.2968 80.4146 27.4652 81.2538 27.4652 82.2896C27.4652 83.3253 28.2968 84.1646 29.3233 84.1646H33.2104C34.2368 84.1646 35.0685 83.3253 35.0685 82.2896C35.0685 81.2538 34.2368 80.4146 33.2104 80.4146Z" fill="black"/>
<path d="M13.8623 84.1646H21.9423C22.9687 84.1646 23.8004 83.3253 23.8004 82.2896C23.8004 81.2538 22.9687 80.4146 21.9423 80.4146H13.8623C12.8358 80.4146 12.0042 81.2538 12.0042 82.2896C12.0042 83.3253 12.8361 84.1646 13.8623 84.1646Z" fill="black"/>
<path d="M61.2659 80.4146H40.4021C39.3758 80.4146 38.5441 81.2538 38.5441 82.2896C38.5441 83.3253 39.3758 84.1646 40.4021 84.1646H61.2659C62.2923 84.1646 63.1239 83.3253 63.1239 82.2896C63.1239 81.2538 62.2923 80.4146 61.2659 80.4146Z" fill="black"/>
<path d="M33.2104 89.8589H29.3233C28.2968 89.8589 27.4652 90.6981 27.4652 91.7339C27.4652 92.7696 28.2968 93.6089 29.3233 93.6089H33.2104C34.2368 93.6089 35.0685 92.7696 35.0685 91.7339C35.0685 90.6981 34.2368 89.8589 33.2104 89.8589Z" fill="black"/>
<path d="M13.8623 93.6089H21.9423C22.9687 93.6089 23.8004 92.7696 23.8004 91.7339C23.8004 90.6981 22.9687 89.8589 21.9423 89.8589H13.8623C12.8358 89.8589 12.0042 90.6981 12.0042 91.7339C12.0042 92.7696 12.8361 93.6089 13.8623 93.6089Z" fill="black"/>
<path d="M61.2659 89.8589H40.4021C39.3758 89.8589 38.5441 90.6981 38.5441 91.7339C38.5441 92.7696 39.3758 93.6089 40.4021 93.6089H61.2659C62.2923 93.6089 63.1239 92.7696 63.1239 91.7339C63.1239 90.6981 62.2923 89.8589 61.2659 89.8589Z" fill="black"/>
<rect x="13" y="23" width="53" height="15" fill="black"/>
<rect x="11" y="21" width="53" height="15" fill="#FCEE21"/>
<path d="M29.3258 31H26.4758V29.62H29.3258C29.5258 29.62 29.6458 29.52 29.7258 29.42C29.7858 29.34 29.8658 29.18 29.8158 29.01L28.9958 26.08L30.3158 25.7L31.1558 28.64C31.2858 29.25 31.1658 29.82 30.7958 30.29C30.4358 30.73 29.9058 31 29.3258 31ZM37.7343 29.62V31H36.8743C36.8143 31.61 36.5543 32.14 36.1143 32.55C35.3343 33.29 34.5243 33.42 32.6043 33.41L32.6143 32.04C34.0043 32.04 34.6843 32 35.1943 31.54C35.2943 31.45 35.3843 31.29 35.4343 31.09L35.4543 31H34.5443C33.1743 31 32.0843 29.89 32.0843 28.5C32.0843 27.15 33.1743 26.07 34.5443 26.07H36.8843V29.62H37.7343ZM35.4943 29.62V27.46H34.5443C33.9443 27.46 33.4543 27.91 33.4543 28.5C33.4543 29.13 33.9443 29.62 34.5443 29.62H35.4943ZM43.8009 29.62H44.8809V30.99L37.5309 31V29.62H42.4109V28.84C42.4109 28.06 41.7809 27.44 41.0109 27.44H38.7709L38.0009 25.92L40.0809 23.02L41.2209 23.83L39.6109 26.04H41.1009C42.5909 26.04 43.8009 27.24 43.8009 28.75V29.62ZM44.7593 31C44.3793 31 44.0693 30.69 44.0693 30.31C44.0693 29.93 44.3793 29.62 44.7593 29.62H45.2393C45.4293 29.62 45.5893 29.46 45.5893 29.27V24.01H46.9693V29.27C46.9693 30.22 46.1893 31 45.2393 31H44.7593ZM48.6269 31V24H50.0069V31H48.6269Z" fill="black"/>
</svg>
