<svg id="Layer_1" data-name="Layer 1" xmlns="http://www.w3.org/2000/svg" viewBox="0 0 53.79 53.72"><defs><style>.cls-1{fill:#39b44a;}</style></defs><path class="cls-1" d="M26.86,53.72a27.15,27.15,0,0,1-10.61-2,25.94,25.94,0,0,1-14.2-14.2A27.15,27.15,0,0,1,0,26.86,27,27,0,0,1,2.05,16.32,26.18,26.18,0,0,1,16.25,2.08,26.85,26.85,0,0,1,26.86,0a27,27,0,0,1,9.4,1.61A27.58,27.58,0,0,1,44.12,6L41.23,8.93A22.36,22.36,0,0,0,34.65,5.3,23.31,23.31,0,0,0,26.86,4,22.38,22.38,0,0,0,4,26.86,22.38,22.38,0,0,0,26.86,49.7,22.38,22.38,0,0,0,49.7,26.86a25.42,25.42,0,0,0-.3-3.93,22.31,22.31,0,0,0-.91-3.73l3.09-3.09a25.63,25.63,0,0,1,1.61,5.17,28.21,28.21,0,0,1,.54,5.57A26.77,26.77,0,0,1,45.94,46a26.09,26.09,0,0,1-8.53,5.67A26.86,26.86,0,0,1,26.86,53.72Zm-4-14.64L11.82,27.94l3-3L22.9,33,50.7,5.18l3.09,3Z"/></svg>