<?xml version="1.0" encoding="utf-8"?>
<!-- Generator: Adobe Illustrator 25.2.3, SVG Export Plug-In . SVG Version: 6.00 Build 0)  -->
<svg version="1.1" id="Layer_1" xmlns="http://www.w3.org/2000/svg" xmlns:xlink="http://www.w3.org/1999/xlink" x="0px" y="0px"
	 viewBox="0 0 55.92 55.85" style="enable-background:new 0 0 55.92 55.85;" xml:space="preserve">
<style type="text/css">
	.st0{fill:none;stroke:#2680FF;stroke-width:3;stroke-miterlimit:10;}
	.st1{fill:none;stroke:#2680FF;stroke-width:4;stroke-miterlimit:10;}
	.st2{fill:#2680FF;}
</style>
<path class="st2" d="M16.55,11.17L26.74,0.98l2.93,2.93L24.5,9.08h12.71v4.19H24.5l5.17,5.17l-2.93,2.93L16.55,11.17z M36.44,54.38
	c-0.98-0.98-1.47-2.16-1.47-3.56c0-1.4,0.49-2.58,1.47-3.56c0.98-0.98,2.16-1.47,3.56-1.47c1.4,0,2.58,0.49,3.56,1.47
	c0.98,0.98,1.47,2.16,1.47,3.56c0,1.4-0.49,2.58-1.47,3.56c-0.98,0.98-2.16,1.47-3.56,1.47C38.61,55.85,37.42,55.36,36.44,54.38z
	 M8.24,54.38c-0.98-0.98-1.47-2.16-1.47-3.56c0-1.4,0.49-2.58,1.47-3.56c0.98-0.98,2.16-1.47,3.56-1.47s2.58,0.49,3.56,1.47
	c0.98,0.98,1.47,2.16,1.47,3.56c0,1.4-0.49,2.58-1.47,3.56c-0.98,0.98-2.16,1.47-3.56,1.47S9.22,55.36,8.24,54.38z M50.48,4.19
	L40.14,26.81l4.47,8.24c0.79,1.44,0.73,2.86-0.17,4.26c-0.91,1.4-2.25,2.09-4.01,2.09H6.77v-4.19h34.28l-3.91-7.26H15.99
	c-0.98,0-1.87-0.27-2.69-0.8c-0.81-0.54-1.48-1.25-1.99-2.13L0,5.86h4.68l11.17,19.55h20.11L47.82,0l8.1,0v4.19H50.48z"/>
</svg>
