<svg width="16" height="16" viewBox="0 0 16 16" fill="none" xmlns="http://www.w3.org/2000/svg">
<g id="barcode_scanner">
<mask id="mask0_290_2344" style="mask-type:alpha" maskUnits="userSpaceOnUse" x="0" y="0" width="16" height="16">
<rect id="Bounding box" width="16" height="16" fill="#D9D9D9"/>
</mask>
<g mask="url(#mask0_290_2344)">
<path id="barcode_scanner_2" d="M0.666992 14V10.6667H2.00033V12.6667H4.00033V14H0.666992ZM12.0003 14V12.6667H14.0003V10.6667H15.3337V14H12.0003ZM2.66699 12V4H4.00033V12H2.66699ZM4.66699 12V4H5.33366V12H4.66699ZM6.66699 12V4H8.00033V12H6.66699ZM8.66699 12V4H10.667V12H8.66699ZM11.3337 12V4H12.0003V12H11.3337ZM12.667 12V4H13.3337V12H12.667ZM0.666992 5.33333V2H4.00033V3.33333H2.00033V5.33333H0.666992ZM14.0003 5.33333V3.33333H12.0003V2H15.3337V5.33333H14.0003Z" fill="#2680FF"/>
</g>
</g>
</svg>
