<?xml version="1.0" encoding="utf-8"?>
<!-- Generator: Adobe Illustrator 26.0.0, SVG Export Plug-In . SVG Version: 6.00 Build 0)  -->
<svg version="1.1" id="Layer_1" xmlns="http://www.w3.org/2000/svg" xmlns:xlink="http://www.w3.org/1999/xlink" x="0px" y="0px"
	 viewBox="0 0 76.73 48.92" style="enable-background:new 0 0 76.73 48.92;" xml:space="preserve">
<style type="text/css">
	.st0{fill:#B2B2B2;}
	.st1{fill:#2680FF;}
	.st2{fill:#FFFFFF;}
</style>
<g id="Thin-S_76_" transform="matrix(1 0 0 1 814.015 696)">
	<path class="st1" d="M-775.65-658.32c3.68,0,6.81-1.28,9.37-3.85c2.57-2.56,3.85-5.69,3.85-9.37s-1.28-6.81-3.85-9.37
		c-2.56-2.57-5.69-3.85-9.37-3.85s-6.81,1.28-9.37,3.85c-2.57,2.56-3.85,5.69-3.85,9.37s1.28,6.81,3.85,9.37
		C-782.46-659.6-779.33-658.32-775.65-658.32z M-775.65-662.07c-2.63,0-4.86-0.92-6.71-2.76c-1.84-1.84-2.76-4.08-2.76-6.71
		s0.92-4.86,2.76-6.71c1.84-1.84,4.08-2.76,6.71-2.76c2.63,0,4.86,0.92,6.71,2.76c1.84,1.84,2.76,4.08,2.76,6.71
		s-0.92,4.86-2.76,6.71C-770.79-662.99-773.02-662.07-775.65-662.07z M-775.65-647.08c-8.28,0-15.86-2.22-22.73-6.66
		c-6.87-4.44-12.08-10.37-15.63-17.8c3.55-7.43,8.75-13.36,15.58-17.8c6.84-4.44,14.43-6.66,22.78-6.66
		c8.28,0,15.86,2.22,22.73,6.66c6.87,4.44,12.08,10.37,15.63,17.8c-3.55,7.43-8.75,13.36-15.58,17.8
		C-759.71-649.3-767.3-647.08-775.65-647.08z M-775.65-650.24c7.36,0,14.17-1.91,20.41-5.72c6.25-3.82,11.05-9.01,14.4-15.58
		c-3.35-6.57-8.15-11.77-14.4-15.58c-6.25-3.81-13.05-5.72-20.41-5.72c-7.36,0-14.17,1.91-20.41,5.72
		c-6.25,3.82-11.05,9.01-14.4,15.58c3.35,6.57,8.15,11.77,14.4,15.58C-789.82-652.14-783.01-650.24-775.65-650.24z"/>
</g>
</svg>
