<svg width="30" height="30" viewBox="0 0 30 30" fill="none" xmlns="http://www.w3.org/2000/svg">
<g id="home">
<mask id="mask0_1066_26797" style="mask-type:alpha" maskUnits="userSpaceOnUse" x="0" y="0" width="30" height="30">
<rect id="Bounding box" width="30" height="30" fill="#D9D9D9"/>
</mask>
<g mask="url(#mask0_1066_26797)">
<path id="home_2" d="M7.49997 23.75H11.6827V17.4519C11.6827 17.1318 11.791 16.8635 12.0075 16.6469C12.224 16.4304 12.4924 16.3221 12.8125 16.3221H17.1874C17.5076 16.3221 17.7759 16.4304 17.9924 16.6469C18.209 16.8635 18.3173 17.1318 18.3173 17.4519V23.75H22.5V12.6923C22.5 12.6282 22.4859 12.5701 22.4579 12.518C22.4298 12.4659 22.3918 12.4199 22.3437 12.3798L15.2283 7.03124C15.1642 6.97515 15.0881 6.94711 15 6.94711C14.9118 6.94711 14.8357 6.97515 14.7716 7.03124L7.65622 12.3798C7.60816 12.4199 7.57009 12.4659 7.54203 12.518C7.51399 12.5701 7.49997 12.6282 7.49997 12.6923V23.75ZM5.625 23.75V12.6923C5.625 12.3345 5.70503 11.9956 5.86509 11.6755C6.02516 11.3554 6.24641 11.0918 6.52884 10.8846L13.6442 5.52408C14.0391 5.22279 14.4903 5.07214 14.998 5.07214C15.5057 5.07214 15.9583 5.22279 16.3557 5.52408L23.4711 10.8846C23.7535 11.0918 23.9748 11.3554 24.1348 11.6755C24.2949 11.9956 24.3749 12.3345 24.3749 12.6923V23.75C24.3749 24.2612 24.1902 24.7015 23.8208 25.0709C23.4515 25.4403 23.0112 25.625 22.5 25.625H17.5721C17.252 25.625 16.9837 25.5167 16.7671 25.3001C16.5506 25.0836 16.4423 24.8152 16.4423 24.4951V18.197H13.5577V24.4951C13.5577 24.8152 13.4494 25.0836 13.2328 25.3001C13.0163 25.5167 12.7479 25.625 12.4278 25.625H7.49997C6.98876 25.625 6.54847 25.4403 6.17909 25.0709C5.8097 24.7015 5.625 24.2612 5.625 23.75Z" fill="#333333"/>
</g>
</g>
</svg>
