<?xml version="1.0" encoding="utf-8"?>
<!-- Generator: Adobe Illustrator 26.0.0, SVG Export Plug-In . SVG Version: 6.00 Build 0)  -->
<svg version="1.1" id="Layer_1" xmlns="http://www.w3.org/2000/svg" xmlns:xlink="http://www.w3.org/1999/xlink" x="0px" y="0px"
	 viewBox="0 0 39.57 55.53" style="enable-background:new 0 0 39.57 55.53;" xml:space="preserve">
<style type="text/css">
	.st0{fill:#B2B2B2;}
	.st1{fill:#2680FF;}
	.st2{fill:#FFFFFF;}
</style>
<g id="Thin-S_70_" transform="matrix(1 0 0 1 814.015 696)">
	<g>
		<path class="st0" d="M-809.55-640.47c-1.22,0-2.27-0.44-3.15-1.32c-0.88-0.88-1.32-1.96-1.32-3.23v-26.64
			c0-1.28,0.44-2.35,1.32-3.23c0.88-0.88,1.96-1.32,3.23-1.32h3.11v-7.66c0-3.4,1.18-6.28,3.55-8.62c2.37-2.34,5.23-3.51,8.58-3.51
			c3.4,0,6.28,1.17,8.62,3.51c2.34,2.34,3.51,5.21,3.51,8.62v7.66h3.11c1.28,0,2.35,0.44,3.23,1.32c0.88,0.88,1.32,1.96,1.32,3.23
			v26.64c0,1.28-0.44,2.35-1.32,3.23c-0.88,0.88-1.96,1.32-3.23,1.32H-809.55z M-809.47-643.03h30.47c0.58,0,1.06-0.19,1.44-0.56
			c0.37-0.37,0.56-0.85,0.56-1.44v-26.64c0-0.58-0.19-1.06-0.56-1.44c-0.37-0.37-0.85-0.56-1.44-0.56h-30.47
			c-0.58,0-1.06,0.19-1.44,0.56c-0.37,0.37-0.56,0.85-0.56,1.44v26.64c0,0.58,0.19,1.06,0.56,1.44S-810.05-643.03-809.47-643.03z
			 M-794.23-654.2c1.17,0,2.15-0.4,2.95-1.19c0.8-0.8,1.19-1.78,1.19-2.95c0-1.17-0.4-2.15-1.19-2.95c-0.8-0.8-1.78-1.19-2.95-1.19
			s-2.15,0.4-2.95,1.19c-0.8,0.8-1.19,1.78-1.19,2.95c0,1.17,0.4,2.15,1.19,2.95C-796.38-654.6-795.4-654.2-794.23-654.2z
			 M-803.8-676.22h19.15v-7.66c0-2.66-0.93-4.92-2.79-6.78c-1.86-1.86-4.12-2.8-6.78-2.8s-4.92,0.93-6.78,2.8
			c-1.86,1.86-2.79,4.12-2.79,6.78V-676.22z"/>
	</g>
</g>
</svg>
