<svg id="Layer_1" data-name="Layer 1" xmlns="http://www.w3.org/2000/svg" viewBox="0 0 54.77 57.56"><defs><style>.cls-1{fill:#ba1916;}</style></defs><path class="cls-1" d="M16.13,57.56A5,5,0,1,1,19.66,49a5,5,0,0,1-3.53,8.52Zm28,0a5,5,0,1,1,3.53-1.46A4.82,4.82,0,0,1,44.11,57.56ZM29.29,22.65A2.3,2.3,0,0,1,27.62,22a2.34,2.34,0,0,1,0-3.32,2.35,2.35,0,0,1,3.33,0,2.35,2.35,0,0,1-1.66,4Zm-1.59-8.8V0h4.16V13.85Zm-12,29.09a4.53,4.53,0,0,1-4.24-2.39,4.65,4.65,0,0,1,0-4.84l4.2-7.79L5.37,5.54H0V2.77H7.94L19.59,27.7H40.37L51.17,8.31l3.6,1.94L44.18,29.43a4.42,4.42,0,0,1-1.7,1.8,4.92,4.92,0,0,1-2.53.63H21l-3.94,6.92H48.48v4.16Z"/></svg>