<svg id="Layer_1" data-name="Layer 1" xmlns="http://www.w3.org/2000/svg" viewBox="0 0 48 48"><defs><style>.cls-1{fill:#2680ff;}</style></defs><path class="cls-1" d="M2.4,44.28V14.76a2.58,2.58,0,0,1-1.62-1.2A3.92,3.92,0,0,1,0,11.22V3.6A3.49,3.49,0,0,1,1.08,1.11,3.41,3.41,0,0,1,3.6,0H44.4a3.44,3.44,0,0,1,2.49,1.11A3.44,3.44,0,0,1,48,3.6v7.62a3.92,3.92,0,0,1-.78,2.34,2.58,2.58,0,0,1-1.62,1.2V44.28a3.64,3.64,0,0,1-1.11,2.55A3.36,3.36,0,0,1,42,48H6a3.33,3.33,0,0,1-2.52-1.17A3.69,3.69,0,0,1,2.4,44.28ZM6,14.4v30H42v-30Zm38.4-3.6V3.6H3.6v7.2ZM16.8,26.4H31.2V22.8H16.8ZM6,43.87v0Z"/></svg>