<?xml version="1.0" encoding="utf-8"?>
<!-- Generator: Adobe Illustrator 26.0.0, SVG Export Plug-In . SVG Version: 6.00 Build 0)  -->
<svg version="1.1" id="Layer_1" xmlns="http://www.w3.org/2000/svg" xmlns:xlink="http://www.w3.org/1999/xlink" x="0px" y="0px"
	 viewBox="0 0 76.73 63.22" style="enable-background:new 0 0 76.73 63.22;" xml:space="preserve">
<style type="text/css">
	.st0{fill:#B2B2B2;}
	.st1{fill:#2680FF;}
	.st2{fill:#FFFFFF;}
</style>
<g id="Thin-S_79_" transform="matrix(1 0 0 1 814.015 696)">
	<path class="st1" d="M-762.73-662.66l-3.55-3.55c0.26-2.83-0.58-5.06-2.51-6.7c-1.94-1.64-4-2.34-6.16-2.07l-3.55-3.55
		c0.39-0.07,0.84-0.12,1.33-0.15c0.49-0.03,1-0.05,1.53-0.05c3.68,0,6.81,1.28,9.37,3.85c2.57,2.56,3.85,5.69,3.85,9.37
		c0,0.53-0.02,1.05-0.05,1.58C-762.52-663.42-762.6-662.99-762.73-662.66z M-749.81-649.84l-2.37-2.27
		c2.37-1.84,4.52-3.86,6.46-6.06s3.57-4.65,4.88-7.35c-3.22-6.64-7.97-11.85-14.25-15.63c-6.28-3.78-13.14-5.67-20.56-5.67
		c-1.71,0-3.39,0.1-5.03,0.29c-1.64,0.2-3.26,0.53-4.83,0.99l-2.67-2.67c2.11-0.72,4.23-1.2,6.36-1.43
		c2.14-0.23,4.19-0.35,6.16-0.35c8.02,0,15.6,2.15,22.73,6.46c7.13,4.3,12.34,10.3,15.63,18c-1.38,3.02-3.11,5.8-5.18,8.33
		C-744.54-654.66-746.98-652.21-749.81-649.84z M-747.54-632.78l-11.64-11.84c-1.91,0.98-4.29,1.82-7.15,2.51
		c-2.86,0.69-5.97,1.04-9.32,1.04c-8.09,0-15.66-2.15-22.73-6.46c-7.07-4.3-12.28-10.3-15.63-18c1.58-3.75,3.76-7.2,6.56-10.36
		c2.8-3.16,5.84-5.82,9.12-7.99l-10.06-9.86l2.37-2.27l60.76,60.86L-747.54-632.78z M-796.06-681.5c-2.63,1.78-5.33,4.06-8.09,6.85
		c-2.76,2.79-4.86,5.83-6.31,9.12c3.22,6.64,7.97,11.85,14.25,15.63c6.28,3.78,13.14,5.67,20.56,5.67c2.7,0,5.39-0.25,8.09-0.74
		c2.7-0.49,4.8-1.07,6.32-1.73l-7.4-7.2c-0.79,0.46-1.87,0.84-3.25,1.14c-1.38,0.3-2.63,0.45-3.75,0.45c-3.68,0-6.81-1.28-9.37-3.85
		c-2.57-2.56-3.85-5.69-3.85-9.37c0-1.05,0.18-2.25,0.54-3.6c0.36-1.35,0.71-2.49,1.04-3.4L-796.06-681.5z"/>
</g>
</svg>
