<?xml version="1.0" encoding="utf-8"?>
<!-- Generator: Adobe Illustrator 25.2.3, SVG Export Plug-In . SVG Version: 6.00 Build 0)  -->
<svg version="1.1" id="Layer_1" xmlns="http://www.w3.org/2000/svg" xmlns:xlink="http://www.w3.org/1999/xlink" x="0px" y="0px"
	 viewBox="0 0 64.18 46.68" style="enable-background:new 0 0 64.18 46.68;" xml:space="preserve">
<style type="text/css">
	.st0{fill:none;stroke:#2680FF;stroke-width:3;stroke-miterlimit:10;}
	.st1{fill:none;stroke:#2680FF;stroke-width:4;stroke-miterlimit:10;}
	.st2{fill:#2680FF;}
</style>
<path class="st2" d="M40.84,46.68c-6.52,0-12.03-2.26-16.56-6.78c-4.52-4.52-6.78-10.04-6.78-16.56s2.26-12.03,6.78-16.56
	S34.33,0,40.84,0S52.88,2.26,57.4,6.78c4.52,4.52,6.78,10.04,6.78,16.56s-2.26,12.03-6.78,16.56
	C52.88,44.42,47.36,46.68,40.84,46.68z M40.84,42.3c5.25,0,9.72-1.85,13.42-5.54c3.7-3.7,5.54-8.17,5.54-13.42
	s-1.85-9.72-5.54-13.42c-3.7-3.7-8.17-5.54-13.42-5.54s-9.72,1.85-13.42,5.54c-3.7,3.7-5.54,8.17-5.54,13.42s1.85,9.72,5.54,13.42
	C31.12,40.45,35.59,42.3,40.84,42.3z M48.28,33.77l3.06-3.06l-8.24-8.31l-0.07-10.72h-4.38v12.54L48.28,33.77z M2.92,13.86V9.48
	h11.67v4.38H2.92z M0,25.53v-4.38h14.59v4.38H0z M2.92,37.2v-4.38h11.67v4.38H2.92z"/>
</svg>
