<svg width="80" height="80" viewBox="0 0 80 80" fill="none" xmlns="http://www.w3.org/2000/svg">
<g id="Group 36963">
<mask id="mask0_1202_1816" style="mask-type:alpha" maskUnits="userSpaceOnUse" x="0" y="0" width="80" height="80">
<rect id="Rectangle 4404" width="80" height="80" rx="6" transform="matrix(-1 0 0 1 80 0)" fill="#FCEE21"/>
</mask>
<g mask="url(#mask0_1202_1816)">
<g id="Group">
<g id="Group_2">
<path id="Vector" d="M72.6352 43.5773C69.6223 35.9107 60.3411 31.3132 52.4802 34.3557C43.5073 37.8285 46.4823 52.1007 38.3321 54.9867C33.9295 56.5456 27.4211 50.7221 22.9731 49.829C14.7765 48.1836 7.35629 53.967 5.52914 61.9761C3.66507 70.147 6.65484 81.0603 15.6321 83.278C26.3257 85.9196 31.896 76.3067 40.8668 73.5464C50.0726 70.7138 60.3085 77.4037 67.9296 69.2641C73.5601 63.2507 75.6186 51.1689 72.6352 43.5773Z" fill="#2680FF" fill-opacity="0.1"/>
</g>
<g id="Group_3">
<g id="Group_4">
<path id="Vector_2" opacity="0.1" d="M56.6805 60.8218C57.4248 60.8218 58.0281 60.2185 58.0281 59.4742V45.3295C58.0281 44.5852 57.4248 43.9818 56.6805 43.9818H54.8632V37.9509C54.8632 35.7179 53.0533 33.908 50.8202 33.908H28.1796C25.9465 33.908 24.1366 35.7179 24.1366 37.9509V43.9818H22.3193C21.575 43.9818 20.9717 44.5852 20.9717 45.3295V59.4742C20.9717 60.2185 21.575 60.8218 22.3193 60.8218H24.1366V64.0266H22.3193C21.575 64.0266 20.9717 64.6299 20.9717 65.3742V79.5189C20.9717 80.2632 21.575 80.8666 22.3193 80.8666H24.1366V85.6579C24.1366 87.891 25.9465 89.7009 28.1796 89.7009H50.8202C53.0533 89.7009 54.8632 87.891 54.8632 85.6579V80.8665H56.6805C57.4248 80.8665 58.0281 80.2631 58.0281 79.5188V65.3742C58.0281 64.6299 57.4248 64.0266 56.6805 64.0266H54.8632V60.8218H56.6805Z" fill="#2626BB"/>
<g id="Group_5">
<g id="Group_6">
<g id="Group_7">
<path id="Vector_3" d="M54.8628 34.7165V82.4235C54.8628 84.6566 53.0529 86.4665 50.8198 86.4665H28.1792C25.9461 86.4665 24.1362 84.6566 24.1362 82.4235V34.7165C24.1362 32.4835 25.9461 30.6736 28.1792 30.6736H32.5895L35.0529 31.3474H43.9464L46.4097 30.6736H50.8198C53.0529 30.6736 54.8628 32.4835 54.8628 34.7165Z" fill="#9EAFFD"/>
<g id="Group_8">
<path id="Vector_4" d="M37.8109 45.3293V59.4743C37.8109 60.2182 37.2085 60.822 36.4632 60.822H24.1362V43.9817H36.4632C37.2085 43.9817 37.8109 44.5854 37.8109 45.3293Z" fill="#8298FD"/>
<path id="Vector_5" d="M54.8631 43.9817V60.822H42.5361C41.7909 60.822 41.1885 60.2182 41.1885 59.4743V45.3293C41.1885 44.5854 41.7909 43.9817 42.5361 43.9817H54.8631Z" fill="#8298FD"/>
<path id="Vector_6" d="M37.8109 65.3745V79.5195C37.8109 80.2634 37.2085 80.8672 36.4632 80.8672H24.1362V64.0269H36.4632C37.2085 64.0269 37.8109 64.6306 37.8109 65.3745Z" fill="#8298FD"/>
<path id="Vector_7" d="M54.8631 64.0269V80.8672H42.5361C41.7909 80.8672 41.1885 80.2634 41.1885 79.5195V65.3745C41.1885 64.6306 41.7909 64.0269 42.5361 64.0269H54.8631Z" fill="#8298FD"/>
</g>
<g id="Group_9">
<path id="Vector_8" d="M49.2207 37.7007H42.4038C42.0317 37.7007 41.73 37.3989 41.73 37.0269C41.73 36.6548 42.0317 36.353 42.4038 36.353H49.2207C49.5927 36.353 49.8945 36.6548 49.8945 37.0269C49.8945 37.3989 49.5929 37.7007 49.2207 37.7007Z" fill="white"/>
</g>
<path id="Vector_9" d="M32.5894 30.6736L33.5225 33.4022C33.7462 34.0565 34.3613 34.4961 35.0526 34.4961H43.946C44.6375 34.4961 45.2525 34.0565 45.4762 33.4022L46.4093 30.6736H32.5894Z" fill="#4369FC"/>
</g>
<g id="Group_10">
<path id="Vector_10" d="M29.3257 37.7007C29.6978 37.7007 29.9995 37.399 29.9995 37.0269C29.9995 36.6547 29.6978 36.353 29.3257 36.353C28.9535 36.353 28.6519 36.6547 28.6519 37.0269C28.6519 37.399 28.9535 37.7007 29.3257 37.7007Z" fill="white"/>
<path id="Vector_11" d="M31.4541 37.7007C31.8262 37.7007 32.1279 37.399 32.1279 37.0269C32.1279 36.6547 31.8262 36.353 31.4541 36.353C31.082 36.353 30.7803 36.6547 30.7803 37.0269C30.7803 37.399 31.082 37.7007 31.4541 37.7007Z" fill="white"/>
<path id="Vector_12" d="M33.5801 37.7007C33.9522 37.7007 34.2539 37.399 34.2539 37.0269C34.2539 36.6547 33.9522 36.353 33.5801 36.353C33.2079 36.353 32.9062 36.6547 32.9062 37.0269C32.9062 37.399 33.2079 37.7007 33.5801 37.7007Z" fill="white"/>
</g>
</g>
</g>
<g id="Group_11">
<g id="Group_12">
<path id="Vector_13" d="M36.4625 57.5876H22.3179C21.5736 57.5876 20.9702 56.9842 20.9702 56.2399V42.0952C20.9702 41.3509 21.5736 40.7476 22.3179 40.7476H36.4626C37.2069 40.7476 37.8102 41.3509 37.8102 42.0952V56.2399C37.8101 56.9842 37.2068 57.5876 36.4625 57.5876Z" fill="#2680FF"/>
<g id="Group_13">
<g id="Group_14">
<path id="Vector_14" d="M34.5474 46.0012C34.4193 45.8483 34.2301 45.76 34.0308 45.76H27.0475L26.6769 44.6135C26.587 44.3355 26.328 44.147 26.0357 44.147H24.3154C23.9433 44.147 23.6416 44.4486 23.6416 44.8208C23.6416 45.193 23.9433 45.4946 24.3154 45.4946H25.5454L26.9562 49.8585H26.9536C26.5815 49.8585 26.2798 50.1601 26.2798 50.5323C26.2798 50.9045 26.5815 51.2061 26.9536 51.2061H33.2992C33.6256 51.2061 33.9052 50.9722 33.9625 50.6508L34.6941 46.5523C34.729 46.3559 34.6754 46.1542 34.5474 46.0012ZM32.7348 49.8585H28.3723L27.483 47.1076H33.2257L32.7348 49.8585Z" fill="#FCEE21"/>
<path id="Vector_15" d="M27.9077 54.5383C28.4659 54.5383 28.9185 54.0858 28.9185 53.5276C28.9185 52.9694 28.4659 52.5168 27.9077 52.5168C27.3495 52.5168 26.897 52.9694 26.897 53.5276C26.897 54.0858 27.3495 54.5383 27.9077 54.5383Z" fill="#FCEE21"/>
<path id="Vector_16" d="M32.6851 54.5383C33.2433 54.5383 33.6958 54.0858 33.6958 53.5276C33.6958 52.9694 33.2433 52.5168 32.6851 52.5168C32.1268 52.5168 31.6743 52.9694 31.6743 53.5276C31.6743 54.0858 32.1268 54.5383 32.6851 54.5383Z" fill="#FCEE21"/>
</g>
</g>
</g>
<path id="Vector_17" d="M56.6802 57.5873H42.5356C41.7913 57.5873 41.188 56.984 41.188 56.2397V42.095C41.188 41.3507 41.7913 40.7473 42.5356 40.7473H56.6804C57.4247 40.7473 58.028 41.3507 58.028 42.095V56.2397C58.0279 56.984 57.4245 57.5873 56.6802 57.5873Z" fill="#01EBA4"/>
<path id="Vector_18" d="M36.4634 77.6319H22.3188C21.5745 77.6319 20.9712 77.0285 20.9712 76.2842V62.1396C20.9712 61.3953 21.5745 60.792 22.3188 60.792H36.4636C37.2079 60.792 37.8112 61.3953 37.8112 62.1396V76.2844C37.8111 77.0285 37.2077 77.6319 36.4634 77.6319Z" fill="white"/>
<g id="Group_15">
<g id="Group_16">
<path id="Vector_19" d="M56.6792 77.6323H52.9975L52.3236 76.9584H46.8903L46.2165 77.6323H42.5347C41.7904 77.6323 41.187 77.0289 41.187 76.2846V64.7212H58.027V76.2846C58.0269 77.0289 57.4236 77.6323 56.6792 77.6323Z" fill="#2680FF"/>
<path id="Vector_20" d="M58.0273 64.7207V67.1465C58.0273 68.3095 57.0839 69.2515 55.9223 69.2515C54.7592 69.2515 53.8172 68.3095 53.8172 67.1465C53.8172 68.3095 52.8739 69.2515 51.7122 69.2515C50.5492 69.2515 49.6072 68.3095 49.6072 67.1465C49.6072 68.3095 48.6638 69.2515 47.5021 69.2515C46.3391 69.2515 45.3971 68.3095 45.3971 67.1465C45.3971 67.7287 45.1612 68.2543 44.7799 68.6356C44.3985 69.0157 43.8729 69.2515 43.292 69.2515C42.129 69.2515 41.187 68.3095 41.187 67.1465V64.7207H58.0273Z" fill="#4369FC"/>
<g id="Group_17">
<path id="Vector_21" d="M52.9963 77.6319H46.2153V70.1553C46.2153 69.7832 46.5171 69.4814 46.8892 69.4814H52.3225C52.6946 69.4814 52.9963 69.7832 52.9963 70.1553V77.6319Z" fill="#96FFD1"/>
<path id="Vector_22" d="M48.9595 69.4814H50.252V77.6319H48.9595V69.4814Z" fill="#02FFB2"/>
</g>
<g id="Group_18">
<path id="Vector_23" d="M43.2916 66.8265C42.1289 66.8265 41.1865 65.8841 41.1865 64.7214V62.1401C41.1865 61.3958 41.7899 60.7925 42.5342 60.7925H45.3965V64.7214C45.3966 65.8839 44.4542 66.8265 43.2916 66.8265Z" fill="white"/>
<path id="Vector_24" d="M47.502 66.8265C46.3394 66.8265 45.397 65.8841 45.397 64.7214V60.7925H49.6069V64.7214C49.607 65.8839 48.6645 66.8265 47.502 66.8265Z" fill="#1F68CD"/>
<path id="Vector_25" d="M51.712 66.8265C50.5493 66.8265 49.6069 65.8841 49.6069 64.7214V60.7925H53.8169V64.7214C53.817 65.8839 52.8746 66.8265 51.712 66.8265Z" fill="white"/>
<path id="Vector_26" d="M55.9224 66.8265C54.7598 66.8265 53.8174 65.8841 53.8174 64.7214V60.7925H56.6797C57.424 60.7925 58.0273 61.3958 58.0273 62.1401V64.7214C58.0273 65.8839 57.0849 66.8265 55.9224 66.8265Z" fill="#1F68CD"/>
</g>
<path id="Vector_27" d="M56.6785 58.2615C57.7932 58.2615 58.7 57.3547 58.7 56.2401V42.0953C58.7 40.9807 57.7932 40.0739 56.6785 40.0739H55.535V34.7168C55.535 32.116 53.4191 30 50.8183 30H28.1777C25.5768 30 23.4609 32.116 23.4609 34.7168V40.0739H22.3174C21.2027 40.0739 20.2959 40.9807 20.2959 42.0953V56.2401C20.2959 57.3547 21.2027 58.2615 22.3174 58.2615H23.4609V60.1185H22.3174C21.2027 60.1185 20.2959 61.0253 20.2959 62.1399V76.2847C20.2959 77.3993 21.2027 78.3061 22.3174 78.3061H23.4609V82.4238C23.4609 85.0246 25.5768 87.1406 28.1777 87.1406H50.8183C53.4191 87.1406 55.535 85.0246 55.535 82.4238V78.3061H56.6785C57.7932 78.3061 58.7 77.3993 58.7 76.2847V62.1399C58.7 61.0253 57.7932 60.1185 56.6785 60.1185H55.535V58.2615H56.6785ZM21.6436 56.2401V42.0953C21.6436 41.7238 21.9458 41.4215 22.3174 41.4215H36.4621C36.8336 41.4215 37.1359 41.7238 37.1359 42.0953V56.2401C37.1359 56.6116 36.8336 56.9139 36.4621 56.9139H22.3174C21.9458 56.9139 21.6436 56.6116 21.6436 56.2401ZM57.3524 62.1399V76.2847C57.3524 76.6562 57.0501 76.9585 56.6785 76.9585H42.5338C42.1623 76.9585 41.86 76.6562 41.86 76.2847V62.1399C41.86 61.7684 42.1623 61.4661 42.5338 61.4661H56.6785C57.0501 61.4661 57.3524 61.7684 57.3524 62.1399ZM54.1874 60.1185H42.5338C41.4192 60.1185 40.5123 61.0253 40.5123 62.1399V76.2847C40.5123 77.3993 41.4192 78.3061 42.5338 78.3061H54.1874V82.4238C54.1874 84.2815 52.676 85.7929 50.8183 85.7929H28.1777C26.3199 85.7929 24.8085 84.2815 24.8085 82.4238V78.3061H28.4002C28.7722 78.3061 29.074 78.0045 29.074 77.6323C29.074 77.2601 28.7722 76.9585 28.4002 76.9585H22.3174C21.9458 76.9585 21.6436 76.6562 21.6436 76.2847V62.1399C21.6436 61.7684 21.9458 61.4661 22.3174 61.4661H36.4621C36.8336 61.4661 37.1359 61.7684 37.1359 62.1399V76.2847C37.1359 76.6562 36.8336 76.9585 36.4621 76.9585H32.381C32.0089 76.9585 31.7072 77.2601 31.7072 77.6323C31.7072 78.0045 32.0089 78.3061 32.381 78.3061H36.4621C37.5767 78.3061 38.4836 77.3993 38.4836 76.2847V62.1399C38.4836 61.0253 37.5767 60.1185 36.4621 60.1185H24.8085V58.2615H36.462C37.5766 58.2615 38.4834 57.3547 38.4834 56.2401V42.0953C38.4834 40.9807 37.5766 40.0739 36.462 40.0739H24.8085V34.7168C24.8085 32.859 26.3199 31.3477 28.1777 31.3477H50.8183C52.676 31.3477 54.1874 32.859 54.1874 34.7168V40.0739H42.5338C41.4192 40.0739 40.5123 40.9807 40.5123 42.0953V44.1926C40.5123 44.5648 40.8139 44.8664 41.1862 44.8664C41.5584 44.8664 41.86 44.5648 41.86 44.1926V42.0953C41.86 41.7238 42.1623 41.4215 42.5338 41.4215H56.6785C57.0501 41.4215 57.3524 41.7238 57.3524 42.0953V56.2401C57.3524 56.6116 57.0501 56.9139 56.6785 56.9139H42.5338C42.1623 56.9139 41.86 56.6116 41.86 56.2401V48.1733C41.86 47.801 41.5584 47.4994 41.1862 47.4994C40.8139 47.4994 40.5123 47.801 40.5123 48.1733V56.2401C40.5123 57.3547 41.4192 58.2615 42.5338 58.2615H54.1874V60.1185Z" fill="#2626BB"/>
</g>
</g>
</g>
<g id="Group_19">
<g id="Group_20">
<g id="Group_21">
<path id="Vector_28" d="M46.6861 52.2458L45.0296 52.8349C44.7232 52.9438 44.403 52.7112 44.4119 52.3863L44.4603 50.6288L43.3883 49.2353C43.19 48.9776 43.3122 48.6012 43.6241 48.5093L45.3106 48.0122L46.3044 46.562C46.4883 46.2938 46.8841 46.2938 47.0678 46.562L48.0617 48.0122L49.7481 48.5093C50.06 48.6012 50.1822 48.9776 49.9839 49.2353L48.9119 50.6288L48.9603 52.3863C48.9692 52.7113 48.649 52.9439 48.3426 52.8349L46.6861 52.2458Z" fill="#96FFD1"/>
</g>
<g id="Group_22">
<path id="Vector_29" d="M52.5289 52.2458L50.8723 52.8349C50.566 52.9438 50.2458 52.7112 50.2547 52.3863L50.3031 50.6288L49.231 49.2353C49.0328 48.9776 49.155 48.6012 49.4669 48.5093L51.1532 48.0122L52.1471 46.562C52.3309 46.2938 52.7267 46.2938 52.9104 46.562L53.9043 48.0122L55.5906 48.5093C55.9025 48.6012 56.0247 48.9776 55.8264 49.2353L54.7544 50.6288L54.8028 52.3863C54.8117 52.7113 54.4915 52.9439 54.1851 52.8349L52.5289 52.2458Z" fill="#96FFD1"/>
</g>
</g>
</g>
<g id="Group_23">
<path id="Vector_30" d="M49.712 51.3032L48.0554 51.8923C47.7491 52.0012 47.4289 51.7686 47.4378 51.4436L47.4862 49.6862L46.4141 48.2927C46.2159 48.035 46.3381 47.6586 46.65 47.5667L48.3364 47.0696L49.3303 45.6194C49.5141 45.3512 49.91 45.3512 50.0936 45.6194L51.0875 47.0696L52.774 47.5667C53.0858 47.6586 53.2081 48.035 53.0098 48.2927L51.9378 49.6862L51.9861 51.4436C51.995 51.7687 51.6748 52.0013 51.3685 51.8923L49.712 51.3032Z" fill="white"/>
</g>
<g id="Group_24">
<path id="Vector_31" d="M35.5292 64.563V67.0521C35.5292 67.2754 35.3482 67.4564 35.1249 67.4564H33.3177V74.4009C33.3177 74.6242 33.1367 74.8052 32.9134 74.8052H25.8692C25.6459 74.8052 25.4649 74.6242 25.4649 74.4009V67.4564H23.6577C23.4344 67.4564 23.2534 67.2754 23.2534 67.0521V64.563C23.2534 64.3397 23.4344 64.1587 23.6577 64.1587H27.2197C27.3727 64.1587 27.508 64.2483 27.5786 64.3842C27.9186 65.0383 28.6023 65.4848 29.3906 65.4848C30.179 65.4848 30.8625 65.0383 31.2036 64.3842C31.2744 64.2483 31.41 64.1587 31.5631 64.1587H35.1249C35.3482 64.1587 35.5292 64.3397 35.5292 64.563Z" fill="#D1DDFF"/>
<path id="Vector_32" d="M31.6301 68.7464C31.6301 67.512 30.6257 66.5076 29.3912 66.5076C28.1567 66.5076 27.1523 67.512 27.1523 68.7464C27.1523 69.3553 27.3973 69.9074 27.7932 70.3115C27.3973 70.7155 27.1523 71.2676 27.1523 71.8765C27.1523 72.2487 27.4539 72.5503 27.8262 72.5503C28.1984 72.5503 28.5 72.2487 28.5 71.8765C28.5 71.3851 28.8998 70.9853 29.3912 70.9853C29.8826 70.9853 30.2824 71.3851 30.2824 71.8765C30.2824 72.2487 30.584 72.5503 30.9562 72.5503C31.3285 72.5503 31.6301 72.2487 31.6301 71.8765C31.6301 71.2676 31.3851 70.7155 30.9893 70.3115C31.3851 69.9076 31.6301 69.3553 31.6301 68.7464ZM29.3912 69.6378C28.8998 69.6378 28.5 69.2379 28.5 68.7466C28.5 68.2552 28.8998 67.8554 29.3912 67.8554C29.8826 67.8554 30.2824 68.2552 30.2824 68.7466C30.2824 69.2379 29.8826 69.6378 29.3912 69.6378Z" fill="#FFC107"/>
</g>
</g>
<g id="Group_25">
<path id="Vector_33" d="M62.6523 61.3657C62.2801 61.3657 61.9785 61.0641 61.9785 60.6919C61.9785 60.2833 61.6459 59.9507 61.2373 59.9507C60.8651 59.9507 60.5635 59.6491 60.5635 59.2769C60.5635 58.9046 60.8651 58.603 61.2373 58.603C61.6459 58.603 61.9785 58.2704 61.9785 57.8618C61.9785 57.4896 62.2801 57.188 62.6523 57.188C63.0246 57.188 63.3262 57.4896 63.3262 57.8618C63.3262 58.2704 63.6588 58.603 64.0674 58.603C64.4396 58.603 64.7412 58.9046 64.7412 59.2769C64.7412 59.6491 64.4396 59.9507 64.0674 59.9507C63.6588 59.9507 63.3262 60.2833 63.3262 60.6919C63.3262 61.0641 63.0246 61.3657 62.6523 61.3657Z" fill="#2680FF"/>
</g>
<g id="Group_26">
<path id="Vector_34" d="M15.9004 79.7205C15.5283 79.7205 15.2266 79.4188 15.2266 79.0466C15.2266 78.638 14.8941 78.3054 14.4854 78.3054C14.1133 78.3054 13.8115 78.0038 13.8115 77.6316C13.8115 77.2594 14.1133 76.9578 14.4854 76.9578C14.8941 76.9578 15.2266 76.6252 15.2266 76.2166C15.2266 75.8443 15.5283 75.5427 15.9004 75.5427C16.2725 75.5427 16.5742 75.8443 16.5742 76.2166C16.5742 76.6252 16.9067 76.9578 17.3154 76.9578C17.6875 76.9578 17.9893 77.2594 17.9893 77.6316C17.9893 78.0038 17.6875 78.3054 17.3154 78.3054C16.9067 78.3054 16.5742 78.638 16.5742 79.0466C16.5742 79.4188 16.2725 79.7205 15.9004 79.7205Z" fill="white"/>
</g>
<g id="Group_27">
<path id="Vector_35" d="M14.9342 44.7077C14.7617 44.7077 14.5893 44.642 14.4576 44.5103L13.0426 43.0953C12.7794 42.8322 12.7794 42.4055 13.0426 42.1425L14.4576 40.7274C14.7208 40.4642 15.1474 40.4642 15.4106 40.7274L16.8256 42.1425C17.0888 42.4055 17.0888 42.8322 16.8256 43.0953L15.4106 44.5103C15.2792 44.6418 15.1067 44.7077 14.9342 44.7077ZM14.4722 42.6189L14.9343 43.081L15.3964 42.6189L14.9343 42.1568L14.4722 42.6189Z" fill="#01EBA4"/>
</g>
<g id="Group_28">
<path id="Vector_36" d="M65.4824 67.5678C65.31 67.5678 65.1374 67.5021 65.006 67.3704L63.591 65.9554C63.3278 65.6923 63.3278 65.2656 63.591 65.0026L65.006 63.5875C65.2689 63.3243 65.6959 63.3243 65.9588 63.5875L67.3738 65.0026C67.637 65.2656 67.637 65.6923 67.3738 65.9554L65.9588 67.3704C65.8274 67.5019 65.6547 67.5678 65.4824 67.5678ZM65.0203 65.479L65.4824 65.9411L65.9445 65.479L65.4824 65.0169L65.0203 65.479Z" fill="white"/>
</g>
<g id="Group_29">
<path id="Vector_37" d="M18.0309 37.7004C17.8584 37.7004 17.686 37.6346 17.5543 37.503L16.1393 36.0879C15.8761 35.8249 15.8761 35.3982 16.1393 35.1351L17.5543 33.7201C17.8175 33.4569 18.2441 33.4569 18.5073 33.7201L19.9223 35.1351C20.1855 35.3982 20.1855 35.8249 19.9223 36.0879L18.5073 37.503C18.3757 37.6345 18.2034 37.7004 18.0309 37.7004ZM17.5688 35.6115L18.0309 36.0735L18.493 35.6114L18.0309 35.1494L17.5688 35.6115Z" fill="white"/>
</g>
</g>
</g>
</g>
</g>
</svg>
