<svg width="8" height="8" viewBox="0 0 8 8" fill="none" xmlns="http://www.w3.org/2000/svg">
<g id="acute">
<mask id="mask0_1149_14017" style="mask-type:alpha" maskUnits="userSpaceOnUse" x="0" y="0" width="8" height="8">
<rect id="Bounding box" width="8" height="8" fill="#D9D9D9"/>
</mask>
<g mask="url(#mask0_1149_14017)">
<path id="acute_2" d="M4.99992 6.66683C4.25547 6.66683 3.62492 6.4085 3.10825 5.89183C2.59159 5.37516 2.33325 4.74461 2.33325 4.00016C2.33325 3.26127 2.59159 2.63211 3.10825 2.11266C3.62492 1.59322 4.25547 1.3335 4.99992 1.3335C5.73881 1.3335 6.36797 1.59322 6.88742 2.11266C7.40686 2.63211 7.66659 3.26127 7.66659 4.00016C7.66659 4.74461 7.40686 5.37516 6.88742 5.89183C6.36797 6.4085 5.73881 6.66683 4.99992 6.66683ZM4.99992 6.00016C5.55547 6.00016 6.0277 5.80572 6.41659 5.41683C6.80547 5.02794 6.99992 4.55572 6.99992 4.00016C6.99992 3.44461 6.80547 2.97239 6.41659 2.5835C6.0277 2.19461 5.55547 2.00016 4.99992 2.00016C4.44436 2.00016 3.97214 2.19461 3.58325 2.5835C3.19436 2.97239 2.99992 3.44461 2.99992 4.00016C2.99992 4.55572 3.19436 5.02794 3.58325 5.41683C3.97214 5.80572 4.44436 6.00016 4.99992 6.00016ZM5.75825 5.24183L6.23325 4.76683L5.33325 3.86683V2.66683H4.66659V4.14183L5.75825 5.24183ZM0.666585 3.00016V2.3335H1.99992V3.00016H0.666585ZM0.333252 4.3335V3.66683H1.99992V4.3335H0.333252ZM0.666585 5.66683V5.00016H1.99992V5.66683H0.666585Z" fill="#2680FF"/>
</g>
</g>
</svg>
