<svg width="30" height="30" viewBox="0 0 30 30" fill="none" xmlns="http://www.w3.org/2000/svg">
<g id="storefront">
<mask id="mask0_1066_26791" style="mask-type:alpha" maskUnits="userSpaceOnUse" x="0" y="0" width="30" height="30">
<rect id="Bounding box" width="30" height="30" fill="#D9D9D9"/>
</mask>
<g mask="url(#mask0_1066_26791)">
<path id="storefront_2" d="M6.34144 25.9374C5.71005 25.9374 5.1756 25.7187 4.7381 25.2812C4.3006 24.8437 4.08185 24.3093 4.08185 23.6778V13.6923C3.57864 13.2788 3.20083 12.7423 2.94841 12.0829C2.69602 11.4234 2.69081 10.7115 2.93279 9.94709L4.19722 5.81728C4.36389 5.29166 4.64675 4.86778 5.04579 4.54566C5.44483 4.22355 5.92159 4.0625 6.47607 4.0625H23.5385C24.093 4.0625 24.5666 4.21635 24.9592 4.52403C25.3519 4.83172 25.6379 5.25479 25.8174 5.79325L27.1058 9.94709C27.3478 10.7115 27.3426 11.421 27.0902 12.0757C26.8378 12.7303 26.46 13.2772 25.9568 13.7163V23.6778C25.9568 24.3093 25.7381 24.8437 25.3006 25.2812C24.8631 25.7187 24.3286 25.9374 23.6972 25.9374H6.34144ZM17.7693 12.8125C18.452 12.8125 18.9653 12.6038 19.309 12.1863C19.6528 11.7688 19.7934 11.3205 19.7309 10.8413L18.9713 5.93744H15.9568V10.875C15.9568 11.4006 16.1347 11.8549 16.4905 12.238C16.8462 12.621 17.2725 12.8125 17.7693 12.8125ZM12.1443 12.8125C12.7197 12.8125 13.1864 12.621 13.5446 12.238C13.9028 11.8549 14.0819 11.4006 14.0819 10.875V5.93744H11.0674L10.3078 10.8894C10.2405 11.3333 10.3799 11.7648 10.726 12.1839C11.0722 12.603 11.545 12.8125 12.1443 12.8125ZM6.58182 12.8125C7.04496 12.8125 7.44321 12.651 7.77657 12.3281C8.1099 12.0052 8.31583 11.5993 8.39435 11.1106L9.12994 5.93744H6.47607C6.33984 5.93744 6.23166 5.96749 6.15154 6.02759C6.07139 6.0877 6.01129 6.17786 5.97123 6.29806L4.76932 10.3653C4.60424 10.9022 4.68195 11.4443 5.00248 11.9916C5.323 12.5389 5.84944 12.8125 6.58182 12.8125ZM23.4568 12.8125C24.1331 12.8125 24.6507 12.5469 25.0097 12.0156C25.3687 11.4844 25.4552 10.9343 25.2694 10.3653L24.0049 6.274C23.9649 6.15381 23.9048 6.06767 23.8246 6.01556C23.7445 5.96348 23.6363 5.93744 23.5001 5.93744H20.9087L21.6443 11.1106C21.7228 11.5993 21.9288 12.0052 22.2621 12.3281C22.5954 12.651 22.9937 12.8125 23.4568 12.8125Z" fill="#2680FF"/>
</g>
</g>
</svg>
