<svg id="Layer_1" data-name="Layer 1" xmlns="http://www.w3.org/2000/svg" viewBox="0 0 59.31 51"><defs><style>.cls-1{fill:#2680ff;}</style></defs><path class="cls-1" d="M10.64,51a3.06,3.06,0,0,1-1.9-.63,3,3,0,0,1-1.11-1.64L.08,21.52a1.92,1.92,0,0,1,.37-1.8,2,2,0,0,1,1.7-.8H15.52L27.89.87a2.74,2.74,0,0,1,.73-.64,2,2,0,0,1,1.87,0,2.93,2.93,0,0,1,.74.64l12.3,18.05h13.7a2,2,0,0,1,1.64.8,1.94,1.94,0,0,1,.36,1.8L51.61,48.73a2.93,2.93,0,0,1-1.1,1.64,3.08,3.08,0,0,1-1.9.63Zm.67-4H47.94l6.75-24.06H4.62Zm18.31-7.58a4,4,0,1,0-2.84-1.17A3.86,3.86,0,0,0,29.62,39.41ZM20.4,18.92H38.65L29.56,5.55ZM11.31,47h0Z"/></svg>