<?xml version="1.0" encoding="utf-8"?>
<!-- Generator: Adobe Illustrator 25.2.3, SVG Export Plug-In . SVG Version: 6.00 Build 0)  -->
<svg version="1.1" id="Layer_1" xmlns="http://www.w3.org/2000/svg" xmlns:xlink="http://www.w3.org/1999/xlink" x="0px" y="0px"
	 viewBox="0 0 39.57 62.55" style="enable-background:new 0 0 39.57 62.55;" xml:space="preserve">
<style type="text/css">
	.st0{fill:none;stroke:#2680FF;stroke-width:3;stroke-miterlimit:10;}
	.st1{fill:none;stroke:#2680FF;stroke-width:4;stroke-miterlimit:10;}
	.st2{fill:#2680FF;}
</style>
<g id="Thin-S_27_" transform="matrix(1 0 0 1 814.015 696)">
	<g>
		<path class="st2" d="M-809.47-633.45c-1.33,0-2.42-0.43-3.27-1.28c-0.85-0.85-1.28-1.94-1.28-3.27v-53.45
			c0-1.33,0.43-2.42,1.28-3.27c0.85-0.85,1.94-1.28,3.27-1.28h30.47c1.33,0,2.42,0.43,3.27,1.28c0.85,0.85,1.28,1.94,1.28,3.27V-638
			c0,1.33-0.43,2.42-1.28,3.27c-0.85,0.85-1.94,1.28-3.27,1.28H-809.47z M-811.46-641.43v3.43c0,0.53,0.2,1,0.6,1.4
			s0.86,0.6,1.4,0.6h30.47c0.53,0,1-0.2,1.4-0.6s0.6-0.86,0.6-1.4v-3.43H-811.46z M-811.46-643.98H-777v-41.49h-34.46V-643.98z
			 M-811.46-688.02H-777v-3.43c0-0.53-0.2-1-0.6-1.4s-0.86-0.6-1.4-0.6h-30.47c-0.53,0-1,0.2-1.4,0.6s-0.6,0.86-0.6,1.4V-688.02z"/>
	</g>
</g>
</svg>
