<svg width="30" height="30" viewBox="0 0 30 30" fill="none" xmlns="http://www.w3.org/2000/svg">
<g id="shopping_cart">
<mask id="mask0_528_318" style="mask-type:alpha" maskUnits="userSpaceOnUse" x="0" y="0" width="30" height="30">
<rect id="Bounding box" width="30" height="30" transform="matrix(-1 0 0 1 30 0)" fill="#D9D9D9"/>
</mask>
<g mask="url(#mask0_528_318)">
<path id="shopping_cart_2" d="M21.0577 26.947C21.6651 26.947 22.1815 26.7343 22.607 26.3088C23.0324 25.8834 23.2452 25.3669 23.2452 24.7596C23.2452 24.1522 23.0324 23.6358 22.607 23.2103C22.1815 22.7848 21.6651 22.5721 21.0577 22.5721C20.4503 22.5721 19.9339 22.7848 19.5084 23.2103C19.083 23.6358 18.8702 24.1522 18.8702 24.7596C18.8702 25.3669 19.083 25.8834 19.5084 26.3088C19.9339 26.7343 20.4503 26.947 21.0577 26.947ZM8.94234 26.947C9.54972 26.947 10.0661 26.7343 10.4916 26.3088C10.9171 25.8834 11.1298 25.3669 11.1298 24.7596C11.1298 24.1522 10.9171 23.6358 10.4916 23.2103C10.0661 22.7848 9.54972 22.5721 8.94234 22.5721C8.33499 22.5721 7.81857 22.7848 7.39309 23.2103C6.96761 23.6358 6.75488 24.1522 6.75488 24.7596C6.75488 25.3669 6.96761 25.8834 7.39309 26.3088C7.81857 26.7343 8.33499 26.947 8.94234 26.947ZM23.3798 5.3125H6.02412C5.51292 5.3125 5.1263 5.53004 4.86428 5.96513C4.60226 6.40023 4.58984 6.84454 4.82703 7.29806L8.83178 14.5528C9.03693 14.9134 9.30817 15.1943 9.6455 15.3954C9.98283 15.5965 10.3526 15.697 10.7548 15.697H19.875L21.3222 18.3413C21.3863 18.4374 21.3883 18.5416 21.3282 18.6538C21.2681 18.766 21.1779 18.8221 21.0577 18.8221H6.75488V20.697H21.0577C21.891 20.697 22.5172 20.3377 22.9363 19.6189C23.3554 18.9002 23.3702 18.1826 22.9808 17.4663L21.1971 14.2596L25.7452 4.68744H28.125V2.8125H24.5673L23.3798 5.3125Z" fill="#2680FF"/>
</g>
</g>
</svg>
