<svg width="61" height="26" viewBox="0 0 61 26" fill="none" xmlns="http://www.w3.org/2000/svg">
<g id="Group">
<g id="Group_2">
<path id="Vector" d="M32.814 17.0776L47.681 18.9156L48.9617 16.6677L32.814 17.0776Z" fill="#FF5C00"/>
</g>
<g id="Group_3">
<g id="Group_4">
<path id="Vector_2" d="M7.37352 3.84899L6.31007 9.804C6.97047 9.18674 7.66669 8.67827 9.50041 8.67827C12.0309 8.67827 14.2677 10.131 13.5709 13.9072L12.3605 20.7704C11.7001 24.5467 9.61027 25.9994 5.35588 25.9994H5.28244C1.7619 25.9994 -0.548302 24.5467 0.111495 20.7704L0.844738 16.6305H4.88L4.2196 20.3347C3.92642 22.0777 4.65967 22.5134 5.90642 22.5134C7.15318 22.5134 8.03331 22.0777 8.3271 20.3347L9.39054 14.3797C9.68372 12.6367 9.02392 12.2009 7.99689 12.2009C7.00689 12.2009 6.27304 12.6367 5.61325 13.7263L1.68906 12.6367L3.8894 0.290283H15.6978L15.0744 3.84899H7.37352Z" fill="#345BFF"/>
<path id="Vector_3" d="M29.377 5.37442L26.6632 20.6256C25.9663 24.4746 23.766 26 19.5486 26H19.2555C15.7713 26 13.3513 24.4746 14.0481 20.6256L16.7619 5.37442C17.4217 1.52542 19.6585 0 23.8759 0H24.169C27.6532 0 30.0368 1.52542 29.377 5.37442ZM23.3624 3.70415C22.0057 3.70415 21.0521 4.21263 20.7584 6.02834L18.2649 19.9723C17.9347 21.788 18.7049 22.2964 20.0615 22.2964C21.4182 22.2964 22.3353 21.788 22.6655 19.9723L25.159 6.02834C25.4528 4.21203 24.7196 3.70415 23.3624 3.70415Z" fill="#345BFF"/>
<path id="Vector_4" d="M30.7703 25.709H28.3496L44.779 0.290225H47.1997L30.7703 25.709ZM38.178 3.15895L37.3343 7.95217C36.9676 10.0948 35.574 10.9663 33.6668 10.9663H33.0799C31.5393 10.9663 30.0358 10.0948 30.4031 7.95217L31.2468 3.15895C31.6504 1.01627 33.007 0.144775 34.9876 0.144775H35.5746C37.0411 0.145376 38.5816 1.01687 38.178 3.15895ZM35.0241 2.36018H34.6939C34.1439 2.36018 33.7039 2.68714 33.5206 3.59469L32.8237 7.51642C32.6768 8.42398 33.007 8.75094 33.557 8.75094H33.8872C34.4371 8.75094 34.9142 8.42398 35.0605 7.51642L35.7573 3.59469C35.9412 2.68714 35.5746 2.36018 35.0241 2.36018ZM45.1462 18.0471L44.3025 22.8403C43.9359 24.983 42.5058 25.8545 40.5987 25.8545H40.0117C38.4712 25.8545 37.0047 24.983 37.3713 22.8403L38.215 18.0471C38.6187 15.9044 39.9753 15.0329 41.9559 15.0329H42.5428C44.0093 15.0335 45.5493 15.905 45.1462 18.0471ZM41.9923 17.2483H41.6621C41.1122 17.2483 40.6351 17.5753 40.4888 18.4828L39.792 22.4046C39.6451 23.3121 39.9753 23.6391 40.5252 23.6391H40.8554C41.4053 23.6391 41.8824 23.3121 42.0287 22.4046L42.7255 18.4828C42.8724 17.5753 42.5422 17.2483 41.9923 17.2483Z" fill="#345BFF"/>
</g>
</g>
<g id="Group_5">
<path id="Vector_5" opacity="0.15" d="M32.8745 17.0777L48.1694 18.0616L48.9792 16.6401L32.8745 17.0777Z" fill="#A60808"/>
</g>
<g id="Group_6">
<g id="Group_7">
<path id="Vector_6" d="M40.3467 5.03125L32.814 17.0771H58.977L61.0001 5.03125H40.3467Z" fill="#FF0000"/>
</g>
</g>
</g>
</svg>
