<?xml version="1.0" encoding="utf-8"?>
<!-- Generator: Adobe Illustrator 25.2.3, SVG Export Plug-In . SVG Version: 6.00 Build 0)  -->
<svg version="1.1" id="Layer_1" xmlns="http://www.w3.org/2000/svg" xmlns:xlink="http://www.w3.org/1999/xlink" x="0px" y="0px"
	 viewBox="0 0 58.8 57.9" style="enable-background:new 0 0 58.8 57.9;" xml:space="preserve">
<style type="text/css">
	.st0{fill:#FFFFFF;}
	.st1{fill:#2680FF;}
	.st2{fill:#FAAD17;}
	.st3{fill:none;stroke:#B2B2B2;stroke-width:5;stroke-miterlimit:10;}
	.st4{fill:none;stroke:#2680FF;stroke-width:5;stroke-miterlimit:10;}
	.st5{fill:#B2B2B2;}
	.st6{fill:#4D4D4D;}
	.st7{fill:none;stroke:#2680FF;stroke-width:4;stroke-miterlimit:10;}
</style>
<g id="Thin-S_00000003822292609985454000000010371979920759600270_" transform="matrix(1 0 0 1 814.015 696)">
	<g>
		<path class="st1" d="M-788.5-672.4c-0.7,0-1.3-0.3-1.9-0.8c-0.5-0.5-0.8-1.2-0.8-1.9c0-0.7,0.3-1.3,0.8-1.8
			c0.5-0.6,1.1-0.8,1.8-0.8c0.7,0,1.3,0.3,1.9,0.8c0.5,0.5,0.8,1.2,0.8,1.9c0,0.7-0.3,1.3-0.8,1.8
			C-787.3-672.7-787.9-672.4-788.5-672.4z M-773.2-672.4c-0.7,0-1.3-0.3-1.9-0.8c-0.5-0.5-0.8-1.2-0.8-1.9c0-0.7,0.3-1.3,0.8-1.8
			c0.5-0.6,1.1-0.8,1.8-0.8c0.7,0,1.3,0.3,1.9,0.8c0.5,0.5,0.8,1.2,0.8,1.9c0,0.7-0.3,1.3-0.8,1.8
			C-771.9-672.7-772.5-672.4-773.2-672.4z M-757.8-672.4c-0.7,0-1.3-0.3-1.9-0.8c-0.5-0.5-0.8-1.2-0.8-1.9c0-0.7,0.3-1.3,0.8-1.8
			c0.5-0.6,1.1-0.8,1.8-0.8c0.7,0,1.3,0.3,1.9,0.8c0.5,0.5,0.8,1.2,0.8,1.9c0,0.7-0.3,1.3-0.8,1.8
			C-756.5-672.7-757.1-672.4-757.8-672.4z M-761.2-638.1c-6.4-0.7-12.7-2.5-18.8-5.6c-6.1-3.1-11.6-7.1-16.4-11.9
			c-4.8-4.9-8.8-10.3-11.9-16.4c-3.2-6.1-5-12.3-5.6-18.8c-0.1-1.4,0.3-2.6,1.2-3.6c0.9-1,2.1-1.5,3.6-1.5h7.1
			c1.4,0,2.5,0.4,3.4,1.1c0.9,0.7,1.5,1.7,1.8,3.1l1.8,6.1c0.2,0.9,0.2,1.8-0.1,2.7c-0.3,0.9-0.7,1.6-1.4,2.2l-8.6,8.1
			c3.5,6.1,7.4,11.3,11.6,15.5c4.3,4.2,9.4,7.9,15.3,11l8.9-8.9c0.7-0.7,1.4-1.2,2-1.3c0.6-0.1,1.3-0.1,2.1,0.1l5.2,1.2
			c1.2,0.3,2.2,1,3,1.9c0.7,1,1.1,2.1,1.1,3.4v7c0,1.8-0.6,3-1.9,3.7S-760.2-638-761.2-638.1z M-806.7-676l8-7.3
			c0.3-0.3,0.4-0.6,0.5-0.9c0.1-0.3,0.1-0.7,0-1l-1.8-6.5c-0.1-0.4-0.3-0.7-0.5-0.9c-0.2-0.2-0.6-0.3-1-0.3h-8.1
			c-0.3,0-0.6,0.1-0.8,0.3c-0.2,0.2-0.3,0.5-0.3,0.8c0.1,2.5,0.5,5.1,1.2,7.7C-808.7-681.3-807.8-678.7-806.7-676z M-775-644.9
			c2.4,1.1,5,1.9,7.8,2.5c2.8,0.5,5.1,0.9,7.1,1.1c0.3,0,0.5-0.1,0.7-0.3c0.2-0.2,0.3-0.5,0.3-0.8v-8.1c0-0.4-0.1-0.7-0.3-1
			c-0.2-0.3-0.5-0.5-0.9-0.6l-5.4-1.2c-0.3-0.1-0.5-0.1-0.7,0c-0.2,0.1-0.5,0.2-0.7,0.5L-775-644.9z"/>
	</g>
</g>
</svg>
