<?xml version="1.0" encoding="utf-8"?>
<!-- Generator: Adobe Illustrator 25.2.3, SVG Export Plug-In . SVG Version: 6.00 Build 0)  -->
<svg version="1.1" id="Layer_1" xmlns="http://www.w3.org/2000/svg" xmlns:xlink="http://www.w3.org/1999/xlink" x="0px" y="0px"
	 viewBox="0 0 57.07 55.82" style="enable-background:new 0 0 57.07 55.82;" xml:space="preserve">
<style type="text/css">
	.st0{fill:#2680FF;}
</style>
<g>
	<path class="st0" d="M25.05,55.82c-0.99,0-1.82-0.33-2.49-1c-0.67-0.67-1-1.5-1-2.49V31.4L0.71,4.8C-0.1,3.81-0.22,2.76,0.36,1.66
		S1.85,0,3.07,0H54c1.22,0,2.12,0.55,2.7,1.66c0.58,1.1,0.47,2.15-0.35,3.14L35.51,31.4v20.93c0,0.99-0.33,1.82-1,2.49
		c-0.67,0.67-1.5,1-2.49,1H25.05z M29.04,31.75L49.98,5.23H8.11L29.04,31.75z"/>
</g>
</svg>
