<svg width="24" height="24" viewBox="0 0 24 24" fill="none" xmlns="http://www.w3.org/2000/svg">
<g id="arrow_back_ios_new">
<mask id="mask0_528_1307" style="mask-type:alpha" maskUnits="userSpaceOnUse" x="0" y="0" width="24" height="24">
<rect id="Bounding box" width="24" height="24" transform="matrix(-1 0 0 1 24 0)" fill="#D9D9D9"/>
</mask>
<g mask="url(#mask0_528_1307)">
<path id="arrow_back_ios_new_2" d="M14.45 12.0001L7.10005 19.3501C6.85005 19.6001 6.72922 19.8918 6.73755 20.2251C6.74588 20.5584 6.87505 20.8501 7.12505 21.1001C7.37505 21.3501 7.66672 21.4751 8.00005 21.4751C8.33338 21.4751 8.62505 21.3501 8.87505 21.1001L16.575 13.4251C16.775 13.2251 16.925 13.0001 17.025 12.7501C17.125 12.5001 17.175 12.2501 17.175 12.0001C17.175 11.7501 17.125 11.5001 17.025 11.2501C16.925 11.0001 16.775 10.7751 16.575 10.5751L8.87505 2.87511C8.62505 2.62511 8.32922 2.50428 7.98755 2.51261C7.64588 2.52094 7.35005 2.65011 7.10005 2.90011C6.85005 3.15011 6.72505 3.44178 6.72505 3.77511C6.72505 4.10844 6.85005 4.40011 7.10005 4.65011L14.45 12.0001Z" fill="white"/>
</g>
</g>
</svg>
