<?xml version="1.0" encoding="utf-8"?>
<!-- Generator: Adobe Illustrator 26.0.0, SVG Export Plug-In . SVG Version: 6.00 Build 0)  -->
<svg version="1.1" id="Layer_1" xmlns="http://www.w3.org/2000/svg" xmlns:xlink="http://www.w3.org/1999/xlink" x="0px" y="0px"
	 viewBox="0 0 71.58 62.33" style="enable-background:new 0 0 71.58 62.33;" xml:space="preserve">
<style type="text/css">
	.st0{fill:#B2B2B2;}
	.st1{fill:#2680FF;}
	.st2{fill:#FFFFFF;}
</style>
<g id="Thin-S_00000061431647550241067790000003061955708474093758_" transform="matrix(1 0 0 1 814.015 696)">
	<path class="st1" d="M-747.07-667.79v28.5c0,1.58-0.53,2.91-1.58,4c-1.05,1.08-2.37,1.62-3.94,1.62h-51.19
		c-1.58,0-2.91-0.54-3.99-1.62c-1.09-1.09-1.63-2.42-1.63-4v-28.8c-2.3-1.31-3.71-3.07-4.24-5.27c-0.53-2.2-0.49-4.45,0.1-6.76
		l4.24-11.93c0.33-1.45,0.98-2.46,1.97-3.06c0.99-0.59,2.3-0.89,3.95-0.89h50.2c1.64,0,2.96,0.25,3.94,0.74
		c0.99,0.49,1.65,1.53,1.97,3.11l4.44,12.03c0.53,2.3,0.53,4.6,0,6.9C-743.36-670.92-744.77-669.11-747.07-667.79z M-769.56-669.96
		c2.17,0,3.9-0.56,5.18-1.68c1.28-1.12,1.86-2.33,1.73-3.65l-2.86-17.56h-10.75v16.18c0,1.84,0.67,3.42,2.02,4.73
		C-772.89-670.62-771.33-669.96-769.56-669.96z M-786.91-669.96c1.91,0,3.5-0.66,4.78-1.97s1.92-2.89,1.92-4.73v-16.18h-10.75
		l-2.76,17.85c-0.06,0.99,0.53,2.07,1.78,3.26C-790.7-670.55-789.02-669.96-786.91-669.96z M-804.27-669.96
		c1.78,0,3.27-0.53,4.49-1.58c1.22-1.05,1.92-2.37,2.12-3.94l2.76-17.36h-8.48c-0.86,0-1.53,0.2-2.02,0.59
		c-0.5,0.39-0.87,0.95-1.14,1.68l-4.14,11.84c-0.79,2.3-0.53,4.34,0.79,6.12C-808.58-670.85-806.71-669.96-804.27-669.96z
		 M-752.2-669.96c2.11,0,3.91-0.84,5.43-2.52c1.51-1.68,1.87-3.76,1.08-6.26l-4.24-11.93c-0.26-0.79-0.64-1.35-1.13-1.68
		c-0.5-0.33-1.17-0.5-2.02-0.5h-8.48l2.76,17.36c0.27,1.58,1.02,2.89,2.27,3.94C-755.29-670.49-753.84-669.96-752.2-669.96z
		 M-803.78-636.83h51.19c0.66,0,1.22-0.23,1.68-0.69s0.69-1.05,0.69-1.78v-27.81c-0.2,0.07-0.48,0.13-0.84,0.19
		c-0.36,0.07-0.74,0.1-1.14,0.1c-1.64,0-3.2-0.36-4.68-1.08c-1.48-0.72-2.75-1.84-3.8-3.35c-1.05,1.38-2.32,2.46-3.8,3.25
		c-1.48,0.79-3.27,1.18-5.37,1.18c-1.45,0-2.83-0.36-4.14-1.08s-2.73-1.84-4.24-3.35c-1.32,1.51-2.79,2.63-4.44,3.35
		c-1.64,0.72-3.16,1.08-4.54,1.08c-1.38,0-2.81-0.26-4.29-0.79c-1.48-0.53-2.85-1.74-4.09-3.65c-1.97,1.97-3.71,3.2-5.23,3.7
		c-1.51,0.49-2.66,0.74-3.45,0.74c-0.33,0-0.66-0.03-0.98-0.1c-0.33-0.06-0.66-0.13-0.99-0.19v27.81c0,0.72,0.23,1.31,0.69,1.78
		S-804.5-636.83-803.78-636.83z"/>
</g>
</svg>
