<?xml version="1.0" encoding="utf-8"?>
<!-- Generator: Adobe Illustrator 25.2.3, SVG Export Plug-In . SVG Version: 6.00 Build 0)  -->
<svg version="1.1" id="Layer_1" xmlns="http://www.w3.org/2000/svg" xmlns:xlink="http://www.w3.org/1999/xlink" x="0px" y="0px"
	 viewBox="0 0 51.4 54.5" style="enable-background:new 0 0 51.4 54.5;" xml:space="preserve">
<style type="text/css">
	.st0{fill:#FFFFFF;}
	.st1{fill:#2680FF;}
	.st2{fill:#FAAD17;}
	.st3{fill:none;stroke:#B2B2B2;stroke-width:5;stroke-miterlimit:10;}
	.st4{fill:none;stroke:#2680FF;stroke-width:5;stroke-miterlimit:10;}
	.st5{fill:#B2B2B2;}
	.st6{fill:#4D4D4D;}
	.st7{fill:none;stroke:#2680FF;stroke-width:4;stroke-miterlimit:10;}
</style>
<g id="Thin-S_00000113327766912017261780000003658570260385786793_" transform="matrix(1 0 0 1 814.015 696)">
	<path class="st1" d="M-784.8-641.5h-7.2c-0.6,0-1.1-0.2-1.6-0.6c-0.5-0.4-0.8-1-0.9-1.6l-0.8-6.4c-0.8-0.3-1.8-0.8-3-1.4
		c-1.2-0.6-2.1-1.3-2.8-1.9l-5.8,2.5c-0.7,0.3-1.3,0.3-1.9,0.1c-0.6-0.3-1.1-0.7-1.4-1.3l-3.6-6.2c-0.3-0.6-0.4-1.2-0.2-1.8
		c0.2-0.6,0.5-1.1,1-1.5l4.9-3.8c-0.1-0.5-0.1-1-0.2-1.6c-0.1-0.6-0.1-1.2-0.1-1.7c0-0.5,0-1,0.1-1.6c0.1-0.6,0.1-1.2,0.2-1.8
		l-4.9-3.8c-0.5-0.4-0.8-0.9-1-1.5c-0.2-0.6-0.1-1.2,0.2-1.8l3.6-6.1c0.4-0.6,0.8-1,1.4-1.2c0.6-0.3,1.2-0.3,1.9,0l5.8,2.5
		c0.9-0.7,1.8-1.3,2.8-1.9c1-0.6,2-1.1,2.9-1.4l0.8-6.4c0.1-0.7,0.4-1.2,0.9-1.6c0.5-0.4,1-0.6,1.6-0.6h7.2c0.7,0,1.2,0.2,1.7,0.6
		c0.5,0.4,0.8,1,0.9,1.6l0.8,6.4c1,0.5,2,1,2.9,1.5c0.9,0.5,1.8,1.1,2.7,1.8l6-2.5c0.7-0.3,1.3-0.3,1.9-0.1c0.6,0.3,1.1,0.7,1.4,1.2
		l3.7,6.2c0.3,0.6,0.4,1.2,0.3,1.8c-0.1,0.6-0.5,1.1-1,1.5l-5.1,3.9c0.2,0.6,0.2,1.1,0.2,1.7s0,1.1,0,1.5c0,0.4,0,0.9,0,1.4
		c0,0.6-0.1,1.2-0.1,1.9l5,3.8c0.6,0.4,1,0.9,1.1,1.5c0.1,0.6,0,1.2-0.3,1.8l-3.7,6.3c-0.3,0.6-0.8,1-1.4,1.2
		c-0.6,0.2-1.2,0.2-1.9-0.2l-5.9-2.5c-0.9,0.7-1.8,1.3-2.8,1.9c-0.9,0.6-1.9,1-2.8,1.4l-0.8,6.4c-0.1,0.7-0.4,1.2-0.9,1.6
		C-783.6-641.7-784.1-641.5-784.8-641.5z M-788.6-660.9c2.2,0,4-0.8,5.5-2.3s2.3-3.4,2.3-5.5s-0.8-4-2.3-5.5s-3.4-2.3-5.5-2.3
		c-2.1,0-4,0.8-5.5,2.3s-2.3,3.4-2.3,5.5s0.8,4,2.3,5.5S-790.7-660.9-788.6-660.9z M-788.6-664.3c-1.2,0-2.3-0.4-3.1-1.3
		c-0.9-0.9-1.3-1.9-1.3-3.1s0.4-2.3,1.3-3.1c0.9-0.9,1.9-1.3,3.1-1.3s2.3,0.4,3.1,1.3c0.9,0.9,1.3,1.9,1.3,3.1s-0.4,2.3-1.3,3.1
		C-786.3-664.7-787.4-664.3-788.6-664.3z M-791.4-644.8h6l1-8c1.4-0.4,2.8-1,4-1.7c1.3-0.7,2.5-1.7,3.8-3l7.3,3.3l3.1-5l-6.5-5
		c0.3-0.9,0.4-1.6,0.5-2.3c0.1-0.7,0.1-1.4,0.1-2.1c0-0.7,0-1.3-0.1-1.9c-0.1-0.6-0.2-1.4-0.4-2.4l6.7-5.1l-3.1-5l-7.6,3.3
		c-1-1-2.2-2-3.7-2.8c-1.5-0.9-2.9-1.5-4.1-1.8l-0.9-8.1h-6.1l-0.8,8.1c-1.4,0.3-2.8,0.8-4.1,1.6s-2.6,1.7-3.8,3l-7.4-3.2l-3.1,5
		l6.4,5c-0.2,0.7-0.4,1.5-0.5,2.3c-0.1,0.8-0.2,1.6-0.2,2.3c0,0.7,0.1,1.4,0.2,2.1s0.2,1.5,0.4,2.2l-6.4,5.1l3.1,5l7.3-3.1
		c1.2,1.2,2.4,2.1,3.7,2.8c1.3,0.7,2.7,1.3,4.2,1.7L-791.4-644.8z"/>
</g>
</svg>
