<?xml version="1.0" encoding="utf-8"?>
<!-- Generator: Adobe Illustrator 25.2.3, SVG Export Plug-In . SVG Version: 6.00 Build 0)  -->
<svg version="1.1" id="Layer_1" xmlns="http://www.w3.org/2000/svg" xmlns:xlink="http://www.w3.org/1999/xlink" x="0px" y="0px"
	 viewBox="0 0 69.97 77.75" style="enable-background:new 0 0 69.97 77.75;" xml:space="preserve">
<style type="text/css">
	.st0{fill:none;stroke:#2680FF;stroke-width:3;stroke-miterlimit:10;}
	.st1{fill:none;stroke:#2680FF;stroke-width:4;stroke-miterlimit:10;}
	.st2{fill:#2680FF;}
</style>
<g>
	<path class="st2" d="M5.83,77.75c-1.56,0-2.92-0.58-4.08-1.75S0,73.47,0,71.92V11.66c0-1.56,0.58-2.92,1.75-4.08
		s2.53-1.75,4.08-1.75h5.83V0h5.83v5.83h33.04V0h5.83v5.83h7.78c1.55,0,2.92,0.58,4.08,1.75s1.75,2.53,1.75,4.08v60.26
		c0,1.56-0.58,2.92-1.75,4.08c-1.17,1.17-2.53,1.75-4.08,1.75H5.83z M5.83,71.92h58.31V29.16H5.83V71.92z M5.83,25.27h58.31V11.66
		H5.83V25.27z M5.83,24.54V11.9V24.54z M34.7,46.89c-1.1,0-2.02-0.37-2.77-1.12c-0.75-0.75-1.12-1.67-1.12-2.77s0.37-2.02,1.12-2.77
		c0.75-0.75,1.67-1.12,2.77-1.12s2.02,0.37,2.77,1.12s1.12,1.67,1.12,2.77s-0.37,2.02-1.12,2.77S35.8,46.89,34.7,46.89z
		 M19.15,46.89c-1.1,0-2.02-0.37-2.77-1.12s-1.12-1.67-1.12-2.77s0.37-2.02,1.12-2.77s1.67-1.12,2.77-1.12
		c1.1,0,2.02,0.37,2.77,1.12s1.12,1.67,1.12,2.77s-0.37,2.02-1.12,2.77S20.25,46.89,19.15,46.89z M50.25,46.89
		c-1.1,0-2.02-0.37-2.77-1.12c-0.75-0.75-1.12-1.67-1.12-2.77s0.37-2.02,1.12-2.77c0.75-0.75,1.67-1.12,2.77-1.12
		s2.02,0.37,2.77,1.12c0.75,0.75,1.12,1.67,1.12,2.77s-0.37,2.02-1.12,2.77C52.27,46.52,51.35,46.89,50.25,46.89z M34.7,62.44
		c-1.1,0-2.02-0.37-2.77-1.12c-0.75-0.75-1.12-1.67-1.12-2.77s0.37-2.02,1.12-2.77c0.75-0.75,1.67-1.12,2.77-1.12
		s2.02,0.37,2.77,1.12c0.75,0.75,1.12,1.67,1.12,2.77s-0.37,2.02-1.12,2.77C36.72,62.07,35.8,62.44,34.7,62.44z M19.15,62.44
		c-1.1,0-2.02-0.37-2.77-1.12c-0.75-0.75-1.12-1.67-1.12-2.77s0.37-2.02,1.12-2.77c0.75-0.75,1.67-1.12,2.77-1.12
		c1.1,0,2.02,0.37,2.77,1.12c0.75,0.75,1.12,1.67,1.12,2.77s-0.37,2.02-1.12,2.77C21.17,62.07,20.25,62.44,19.15,62.44z
		 M50.25,62.44c-1.1,0-2.02-0.37-2.77-1.12c-0.75-0.75-1.12-1.67-1.12-2.77s0.37-2.02,1.12-2.77c0.75-0.75,1.67-1.12,2.77-1.12
		s2.02,0.37,2.77,1.12c0.75,0.75,1.12,1.67,1.12,2.77s-0.37,2.02-1.12,2.77C52.27,62.07,51.35,62.44,50.25,62.44z"/>
</g>
</svg>
