<?xml version="1.0" encoding="utf-8"?>
<!-- Generator: Adobe Illustrator 25.2.3, SVG Export Plug-In . SVG Version: 6.00 Build 0)  -->
<svg version="1.1" id="Layer_1" xmlns="http://www.w3.org/2000/svg" xmlns:xlink="http://www.w3.org/1999/xlink" x="0px" y="0px"
	 viewBox="0 0 62.9 69.6" style="enable-background:new 0 0 62.9 69.6;" xml:space="preserve">
<style type="text/css">
	.st0{fill:#FFFFFF;}
	.st1{fill:#2680FF;}
	.st2{fill:#FAAD17;}
	.st3{fill:none;stroke:#B2B2B2;stroke-width:5;stroke-miterlimit:10;}
	.st4{fill:none;stroke:#2680FF;stroke-width:5;stroke-miterlimit:10;}
	.st5{fill:#B2B2B2;}
	.st6{fill:#4D4D4D;}
	.st7{fill:none;stroke:#2680FF;stroke-width:4;stroke-miterlimit:10;}
</style>
<g id="Thin-S_00000070104988313882574460000015782645579430668692_" transform="matrix(1 0 0 1 814.015 696)">
	<g>
		<path class="st1" d="M-805.8-626.4c-2.4,0-4.3-0.8-5.9-2.3c-1.5-1.5-2.3-3.5-2.3-5.9v-5.4c0-0.9,0.3-1.6,1-2.3
			c0.7-0.7,1.5-1,2.3-1h8.3v-49.4c0-1.1,0.3-1.8,0.9-1.9s1.3,0.1,2,0.8l2.1,2.1l3.7-3.6c0.5-0.4,0.9-0.6,1.4-0.6
			c0.5,0,0.9,0.2,1.3,0.6l3.7,3.6l3.8-3.6c0.4-0.4,0.8-0.6,1.3-0.6c0.5,0,0.9,0.2,1.3,0.6l3.8,3.6l3.8-3.6c0.4-0.4,0.8-0.6,1.3-0.6
			c0.5,0,0.9,0.2,1.3,0.6l3.8,3.6l3.7-3.6c0.4-0.4,0.9-0.6,1.4-0.6c0.5,0,1,0.2,1.4,0.6l3.7,3.6l2.1-2.1c0.7-0.7,1.4-1,2-0.7
			c0.6,0.2,0.9,0.8,0.9,1.8v58.2c0,2.4-0.8,4.3-2.3,5.9c-1.5,1.5-3.5,2.3-5.9,2.3H-805.8z M-759.3-630.7c1.1,0,2-0.4,2.8-1.1
			s1.1-1.6,1.1-2.8v-54.6H-798v45.9h31.6c0.9,0,1.6,0.3,2.3,1c0.7,0.7,1,1.5,1,2.3v5.4c0,1.1,0.4,2,1.1,2.8
			S-760.4-630.7-759.3-630.7z M-790.9-675.3c-0.5,0-0.9-0.2-1.4-0.7c-0.5-0.5-0.7-1-0.7-1.5c0-0.6,0.2-1.1,0.7-1.5
			c0.5-0.4,1-0.6,1.5-0.6h16.9c0.6,0,1.1,0.2,1.5,0.7c0.4,0.5,0.6,1,0.6,1.5c0,0.6-0.2,1.1-0.6,1.5c-0.4,0.4-0.9,0.6-1.5,0.6H-790.9
			z M-790.9-663.4c-0.5,0-0.9-0.2-1.4-0.7c-0.5-0.5-0.7-1-0.7-1.5c0-0.6,0.2-1.1,0.7-1.5c0.5-0.4,1-0.6,1.5-0.6h16.9
			c0.6,0,1.1,0.2,1.5,0.7c0.4,0.5,0.6,0.9,0.6,1.5c0,0.6-0.2,1.1-0.6,1.5c-0.4,0.4-0.9,0.6-1.5,0.6H-790.9z M-763.4-674.2
			c-0.8,0-1.5-0.3-2.2-1c-0.7-0.7-1-1.4-1-2.2s0.3-1.5,1-2.2c0.7-0.7,1.4-1,2.2-1c0.9,0,1.6,0.3,2.3,1c0.7,0.7,1,1.4,1,2.2
			s-0.3,1.5-1,2.2C-761.8-674.6-762.6-674.2-763.4-674.2z M-763.4-662.3c-0.8,0-1.5-0.3-2.2-1c-0.7-0.7-1-1.4-1-2.2s0.3-1.5,1-2.2
			c0.7-0.7,1.4-1,2.2-1c0.9,0,1.6,0.3,2.3,1c0.7,0.7,1,1.4,1,2.2s-0.3,1.5-1,2.2C-761.8-662.6-762.6-662.3-763.4-662.3z
			 M-805.8-630.7h38.4v-8.3h-42.2v4.4c0,1.1,0.4,2,1.1,2.8S-806.9-630.7-805.8-630.7z"/>
	</g>
</g>
</svg>
