<svg width="32" height="32" viewBox="0 0 32 32" fill="none" xmlns="http://www.w3.org/2000/svg">
<g id="Food" clip-path="url(#clip0_1149_13866)">
<path id="Vector" d="M21.4904 17.4116C21.4904 17.8646 21.3787 18.2919 21.1817 18.6665C20.73 19.5249 19.8296 20.1096 18.7924 20.1096H14.7767V25.8194H12.7689L12.666 24.5646L12.2457 19.4477C12.1559 18.3515 13.0218 17.4116 14.1217 17.4116H21.4904Z" fill="#616161"/>
<path id="Vector_2" d="M21.4903 17.4116C21.4903 17.8646 21.3786 18.2919 21.1816 18.6665H16.9726C16.2796 18.6665 15.7178 18.1047 15.7178 17.4116H21.4903Z" fill="#424242"/>
<path id="Vector_3" d="M21.4903 10.5099V17.4118H16.9727V7.37256H18.353C18.8255 7.37256 19.2735 7.47737 19.6751 7.66431C20.7474 8.16318 21.4903 9.24993 21.4903 10.5099Z" fill="#2680FF"/>
<path id="Vector_4" d="M0.470703 27.702C0.470703 25.3109 2.40902 23.3726 4.80014 23.3726C7.19127 23.3726 9.12958 25.3109 9.12958 27.702H0.470703Z" fill="#B0BEC5"/>
<path id="Vector_5" d="M1.74004 27.7019C1.68991 27.9242 1.6626 28.1549 1.6626 28.3921C1.6626 30.122 3.06997 31.5293 4.79985 31.5293C6.52972 31.5293 7.9371 30.122 7.9371 28.3921C7.9371 28.1549 7.90979 27.9242 7.85966 27.7019H1.74004Z" fill="#616161"/>
<path id="Vector_6" d="M3.75286 27.7019C3.6218 27.9001 3.54492 28.1372 3.54492 28.3921C3.54492 29.084 4.10786 29.647 4.7998 29.647C5.49173 29.647 6.05467 29.084 6.05467 28.3921C6.05467 28.1372 5.9778 27.9001 5.84673 27.7019H3.75286Z" fill="#D8D7DA"/>
<path id="Vector_7" d="M20.6263 27.7019C20.5761 27.9242 20.5488 28.1549 20.5488 28.3921C20.5488 30.122 21.9562 31.5293 23.6861 31.5293C25.416 31.5293 26.8233 30.122 26.8233 28.3921C26.8233 28.1549 26.796 27.9242 26.7459 27.7019H20.6263Z" fill="#616161"/>
<path id="Vector_8" d="M22.6391 27.7019C22.508 27.9001 22.4312 28.1372 22.4312 28.3921C22.4312 29.084 22.9941 29.647 23.686 29.647C24.378 29.647 24.9409 29.084 24.9409 28.3921C24.9409 28.1372 24.864 27.9001 24.733 27.7019H22.6391Z" fill="#D8D7DA"/>
<path id="Vector_9" d="M11.4423 12.1957L8.15889 23.2438L7.76989 24.5527C7.06464 23.8876 6.13664 23.4572 5.10889 23.3844L5.47845 22.159L8.16264 13.2523C8.4362 12.2497 9.47089 11.658 10.4735 11.9315L11.4423 12.1957Z" fill="#2680FF"/>
<path id="Vector_10" d="M5.55273 12.6431C6.66161 12.6431 7.56055 13.542 7.56055 14.6509C7.56055 15.7598 6.66161 16.6588 5.55273 16.6588V12.6431Z" fill="#FFC107"/>
<path id="Vector_11" d="M14.7763 24.5647V25.8196H12.7684L12.6655 24.5647H14.7763Z" fill="#424242"/>
<path id="Vector_12" d="M18.4155 25.8195V27.7018H11.3253L8.73834 25.6978L8.56266 25.5616C8.34934 25.187 8.08141 24.8469 7.76953 24.5527L8.25834 22.9075L9.32878 23.7106L12.141 25.8195H18.4155Z" fill="#B0BEC5"/>
<path id="Vector_13" d="M28.643 23.8745V27.702H18.4155V20.1099H24.8783C25.9111 20.1099 26.8472 20.5259 27.5268 21.1991C27.9258 21.5944 28.237 22.0782 28.4284 22.6197C28.5677 23.0124 28.643 23.4347 28.643 23.8745Z" fill="#2680FF"/>
<path id="Vector_14" d="M27.5299 21.4354C27.4853 22.8259 26.4074 23.8743 25.0226 23.8743H20.9253C19.9622 23.8743 19.0819 23.5104 18.4155 22.9124V20.1096H24.8783C25.9111 20.1096 26.8472 20.5256 27.5268 21.1989C27.5318 21.2767 27.5324 21.3557 27.5299 21.4354Z" fill="#1F68CD"/>
<path id="Vector_15" d="M25.0225 22.6194H20.9253C19.5392 22.6194 18.4155 21.4957 18.4155 20.1096H24.8783C24.9602 20.1096 25.0416 20.1122 25.1223 20.1174C26.7243 20.2198 26.6278 22.6194 25.0225 22.6194Z" fill="#B0BEC5"/>
<path id="Vector_16" d="M31.5294 14.4626H23.3726V20.1097H31.5294V14.4626Z" fill="#2680FF"/>
<path id="Vector_17" d="M18.6973 8.29812C19.0525 8.13881 19.3837 7.92531 19.6751 7.66431C19.2735 7.47731 18.8255 7.37256 18.353 7.37256H16.9727V7.76343V8.62243V16.8464C18.4032 16.5553 19.4825 15.2872 19.4825 13.7726V10.0079C19.4825 9.32512 19.1775 8.71262 18.6973 8.29812Z" fill="#1F68CD"/>
<path id="Vector_18" d="M18.9603 6.61126C18.5838 6.99901 18.0831 7.2657 17.5221 7.34664C17.4042 7.36357 17.2837 7.37239 17.1607 7.37239C15.8807 7.37239 14.8247 6.41426 14.6703 5.17632C14.6578 5.07345 14.6509 4.96864 14.6509 4.86257C14.6509 4.52939 14.7161 4.21189 14.8341 3.92139H17.4116V4.75901C17.4117 5.68451 18.0799 6.45376 18.9603 6.61126Z" fill="#FDD8A8"/>
<path id="Vector_19" d="M18.9603 6.61132C18.5838 6.99907 18.0831 7.26576 17.5221 7.3467C16.8068 6.85539 16.3043 6.07551 16.1844 5.17632H14.6703C14.6578 5.07345 14.6509 4.96864 14.6509 4.86257C14.6509 4.52939 14.7161 4.21189 14.8341 3.92139H17.4116V4.75901C17.4117 5.68457 18.0799 6.45382 18.9603 6.61132Z" fill="#FFC477"/>
<g id="Group">
<path id="Vector_20" d="M21.1762 6.64132C21.4414 6.04501 21.5775 5.37907 21.5489 4.67919C21.4565 2.42238 19.6343 0.58538 17.3783 0.475755C15.1843 0.369193 13.7801 1.88276 13.333 3.92144H17.4114V4.75888C17.4114 5.79851 18.2542 6.64126 19.2938 6.64126L21.1762 6.64132Z" fill="#2680FF"/>
<path id="Vector_21" d="M12.7686 15.6549H16.3451C17.3847 15.6549 18.2274 14.8122 18.2274 13.7725V10.0078C18.2274 9.45334 17.778 9.00391 17.2235 9.00391C16.669 9.00391 16.2196 9.45334 16.2196 10.0078V13.647H12.7686V15.6549Z" fill="#2680FF"/>
</g>
<path id="Vector_22" d="M12.7686 13.647H10.8863C10.3318 13.647 9.88232 14.0964 9.88232 14.6509C9.88232 15.2054 10.3318 15.6548 10.8863 15.6548H12.7686V13.647Z" fill="#FDD8A8"/>
<path id="Vector_23" d="M31.5294 14.4626H23.3726V15.7175H31.5294V14.4626Z" fill="#1F68CD"/>
<path id="Vector_24" d="M31.5294 12.8941C31.5294 12.3743 31.1081 11.9529 30.5882 11.9529H24.3137C23.794 11.9529 23.3726 12.3743 23.3726 12.8941V14.4627H31.5294V12.8941Z" fill="#2680FF"/>
<path id="Vector_25" d="M8.15889 23.2438L7.76989 24.5527C7.06464 23.8876 6.13664 23.4572 5.10889 23.3844L5.47845 22.1589C6.4767 22.2801 7.39401 22.6659 8.15889 23.2438Z" fill="#1F68CD"/>
<path id="Vector_26" d="M9.32878 23.7107L8.73834 25.6978L8.56266 25.5616C8.34934 25.187 8.08141 24.8469 7.76953 24.5527L8.25834 22.9075L9.32878 23.7107Z" fill="#90A4AE"/>
<path id="Vector_27" d="M30.5882 11.4823H24.3137C23.5352 11.4823 22.902 12.1157 22.902 12.8941V19.6392H21.0431C21.5055 19.172 21.8239 18.5622 21.9256 17.8823H21.9608V10.5098C21.9608 8.94554 20.9597 7.61116 19.5649 7.1121H21.4821L21.6064 6.83279C21.9113 6.14716 22.0502 5.41616 22.0193 4.66016C21.9174 2.1711 19.889 0.126787 17.4013 0.00591154C15.1491 -0.102776 13.4136 1.35841 12.8736 3.82085L12.7483 4.39222H14.2181C14.1934 4.5471 14.1803 4.70404 14.1803 4.86279C14.1803 6.27979 15.1746 7.4681 16.5019 7.76891V8.72279C16.0529 8.97585 15.7489 9.45691 15.7489 10.0079V13.1765H11.6414L12.0301 11.8683L10.5971 11.4777C9.99075 11.3123 9.35625 11.393 8.81056 11.7048C8.26681 12.0156 7.87606 12.519 7.70975 13.1225L7.6475 13.329C7.20788 12.6348 6.43344 12.1726 5.55263 12.1726H5.08225V17.1295H5.55281C5.91456 17.1295 6.25806 17.0509 6.56819 16.911L4.7625 22.9029C2.13312 22.9231 0 25.0677 0 27.702V28.1725H1.1995C1.195 28.2458 1.19219 28.319 1.19219 28.3922C1.19219 30.3815 2.81063 32 4.8 32C6.78938 32 8.40781 30.3815 8.40781 28.3922C8.40781 28.319 8.405 28.2458 8.4005 28.1725H9.6V27.702C9.6 27.4317 9.57644 27.1671 9.53331 26.9088L11.1646 28.1725H20.0858C20.0813 28.2458 20.0785 28.319 20.0785 28.3922C20.0785 30.3815 21.6969 32 23.6863 32C25.6757 32 27.2941 30.3815 27.2941 28.3922C27.2941 28.319 27.2913 28.2458 27.2868 28.1725H29.1138V23.8745C29.1138 23.3896 29.0324 22.9145 28.8723 22.4629C28.6053 21.7068 28.1358 21.0622 27.5382 20.5803H32V12.8941C32 12.1157 31.3667 11.4823 30.5882 11.4823ZM6.0235 13.1874C6.64175 13.3866 7.09019 13.9675 7.09019 14.651C7.09019 15.3345 6.64175 15.9153 6.0235 16.1145V13.1874ZM24.3137 12.4235H30.5882C30.8477 12.4235 31.0588 12.6346 31.0588 12.8941V13.9922H29.1764V13.2078H28.2353V13.9922H26.9804V13.2078H26.0392V13.9922H23.8431V12.8941C23.8431 12.6346 24.0542 12.4235 24.3137 12.4235ZM25.0658 20.5863C25.0794 20.5872 25.093 20.5878 25.1065 20.5888C25.6389 20.63 25.8162 21.0394 25.8054 21.3806C25.7941 21.735 25.5823 22.149 25.0227 22.149H20.9256C19.9631 22.149 19.1541 21.4787 18.9412 20.5804L25.0036 20.5829C25.0657 20.5828 25.0035 20.5828 25.0658 20.5863ZM17.9451 25.349H15.2471V20.5804H17.9451V25.349ZM18.7922 19.6392H14.3059V25.349H13.2022L12.7147 19.4097C12.682 19.0118 12.8129 18.6311 13.0834 18.3376C13.3538 18.044 13.7226 17.8824 14.1217 17.8824H20.9696C20.753 18.8853 19.8589 19.6392 18.7922 19.6392ZM10.8862 16.1255H16.3451C16.3978 16.1255 16.4501 16.1232 16.5019 16.1197V16.9412H14.1216C13.466 16.9412 12.8353 17.2177 12.3911 17.6998C11.9468 18.182 11.7229 18.8332 11.7765 19.4867L12.2551 25.3169L8.80287 22.7277L10.7666 16.1202C10.8061 16.1234 10.846 16.1255 10.8862 16.1255ZM21.0196 10.5098V16.9412H17.4431V15.8527C18.1887 15.4575 18.698 14.6736 18.698 13.7726V10.0079C18.698 9.26947 18.1524 8.65622 17.4431 8.54985V7.84322H18.3529C19.8234 7.84316 21.0196 9.03941 21.0196 10.5098ZM17.3557 0.945912C19.3614 1.04335 20.9969 2.69166 21.079 4.6986C21.0998 5.20697 21.0256 5.70091 20.8582 6.17091H19.2941C19.2214 6.17091 19.15 6.16541 19.0803 6.15472L19.0434 6.14816C19.0022 6.14079 18.9618 6.13154 18.9219 6.12079C18.9198 6.12022 18.9177 6.1196 18.9156 6.11897C18.8781 6.1086 18.8411 6.09672 18.805 6.08347C18.7992 6.08135 18.7935 6.07891 18.7877 6.07666C18.7607 6.06635 18.7342 6.05497 18.7081 6.0431C18.6919 6.03572 18.6759 6.02804 18.6601 6.02004C18.6424 6.01116 18.6251 6.00191 18.6079 5.99235C18.5748 5.97391 18.5426 5.95429 18.5112 5.93329C18.5091 5.93191 18.507 5.93066 18.505 5.92929C18.4113 5.86585 18.3256 5.79147 18.2497 5.70804C18.2199 5.67522 18.1915 5.64091 18.1649 5.60541L18.1628 5.60266C18.1241 5.55097 18.0891 5.49641 18.0577 5.43966C18.0491 5.4241 18.0409 5.40835 18.0329 5.39247C18.023 5.37279 18.0136 5.35285 18.0045 5.33266C17.9956 5.31254 17.987 5.29216 17.9789 5.2716C17.9737 5.25829 17.9686 5.24497 17.9638 5.23154C17.9541 5.20429 17.9454 5.17666 17.9373 5.14866C17.9347 5.13941 17.9319 5.13029 17.9295 5.12097C17.9209 5.08847 17.9136 5.05554 17.9073 5.02222C17.9058 5.01435 17.9044 5.00629 17.9031 4.99835C17.8971 4.96341 17.8922 4.9281 17.8889 4.89235C17.8883 4.88666 17.8881 4.88091 17.8876 4.87522C17.8844 4.83691 17.8824 4.79822 17.8824 4.75922V3.4511H13.9497C14.5022 1.79397 15.7433 0.868224 17.3557 0.945912ZM15.1216 4.86279C15.1216 4.70304 15.1399 4.5456 15.1764 4.39222H16.9411V4.75916C16.9411 4.80554 16.9428 4.85147 16.9455 4.89722C16.9464 4.9121 16.9478 4.92679 16.9489 4.94154C16.9513 4.97247 16.9541 5.00335 16.9577 5.03397C16.9597 5.05104 16.9618 5.0681 16.9642 5.08504C16.9681 5.11341 16.9727 5.1416 16.9777 5.1696C16.9807 5.18685 16.9835 5.20416 16.987 5.22129C16.9931 5.25172 17.0001 5.28185 17.0073 5.31185C17.015 5.34385 17.0236 5.37547 17.0326 5.40691C17.0381 5.42641 17.0435 5.44604 17.0496 5.46535C17.0579 5.49172 17.0669 5.51766 17.0761 5.54366C17.0806 5.55635 17.0851 5.56904 17.0898 5.58154C17.1007 5.61072 17.1121 5.6396 17.124 5.66816C17.1263 5.67354 17.1286 5.67891 17.1309 5.68429C17.3119 6.10779 17.6131 6.4701 17.9974 6.72354C17.738 6.84047 17.4544 6.90197 17.1607 6.90197C16.0364 6.90197 15.1216 5.98722 15.1216 4.86279ZM16.6902 14.1177V10.0078C16.6902 9.71379 16.9294 9.47454 17.2235 9.47454C17.5176 9.47454 17.7568 9.71379 17.7568 10.0078V13.7725C17.7568 14.551 17.1235 15.1843 16.3451 15.1843H10.8862C10.5922 15.1843 10.3529 14.945 10.3529 14.651C10.3529 14.3569 10.5922 14.1177 10.8862 14.1177H16.6902ZM8.61287 13.3883L8.61631 13.3763C8.7155 13.0125 8.95044 12.7091 9.27781 12.522C9.60519 12.3349 9.98588 12.2864 10.3497 12.3857L10.8539 12.5231L10.6543 13.1949C9.95106 13.3065 9.41175 13.9168 9.41175 14.651C9.41175 15.0836 9.59906 15.4732 9.89675 15.7432L8 22.1255L7.91937 22.3968L7.518 23.7473C7.51113 23.7425 7.50388 23.7383 7.497 23.7336C7.45281 23.7035 7.40763 23.6748 7.36244 23.6462C7.34331 23.6342 7.32469 23.6213 7.30538 23.6097C6.82556 23.3148 6.29025 23.1025 5.71906 22.9913L8.61287 13.3883ZM7.46669 28.3922C7.46669 29.8626 6.27044 31.0588 4.8 31.0588C3.32956 31.0588 2.13331 29.8625 2.13331 28.3922C2.13331 28.3191 2.13637 28.2458 2.14256 28.1725H3.08938C3.08006 28.2451 3.0745 28.3183 3.0745 28.3922C3.0745 29.3435 3.8485 30.1177 4.8 30.1177C5.7515 30.1177 6.5255 29.3436 6.5255 28.3922C6.5255 28.3183 6.51994 28.2451 6.51062 28.1725H7.45744C7.46356 28.2458 7.46669 28.3192 7.46669 28.3922ZM5.58431 28.3922C5.58431 28.8247 5.2325 29.1765 4.8 29.1765C4.3675 29.1765 4.01569 28.8247 4.01569 28.3922C4.01569 28.3173 4.02644 28.2435 4.04725 28.1725H5.55269C5.57356 28.2435 5.58431 28.3172 5.58431 28.3922ZM8.63025 27.2314H0.96975C1.2025 25.3247 2.83144 23.8432 4.8 23.8432C4.86013 23.8432 4.91981 23.8446 4.97931 23.8473L5.07587 23.8542C5.68075 23.8969 6.26619 24.0839 6.78263 24.3932C6.78506 24.3947 6.78762 24.396 6.79006 24.3975C6.82444 24.4182 6.85812 24.44 6.89187 24.4617C6.90794 24.4722 6.92413 24.4822 6.94006 24.4928C6.96344 24.5085 6.98644 24.5248 7.0095 24.5409C7.035 24.5588 7.0605 24.5765 7.08556 24.5949C7.10088 24.6062 7.11588 24.6178 7.13106 24.6293C7.16288 24.6535 7.1945 24.6778 7.22556 24.703C7.23531 24.7108 7.24481 24.719 7.2545 24.727C7.28969 24.756 7.3245 24.7855 7.35869 24.8158C7.3655 24.8219 7.37225 24.8281 7.37906 24.8342C7.41675 24.8682 7.45406 24.9026 7.49038 24.938L7.49294 24.9405C7.53331 24.9798 7.57281 25.0201 7.61144 25.0612C7.76544 25.225 7.90531 25.4027 8.02906 25.5914C8.03394 25.5989 8.03881 25.6065 8.04369 25.614C8.06813 25.6518 8.09181 25.6901 8.11487 25.7288C8.12113 25.7393 8.1275 25.7497 8.13363 25.7603C8.39219 26.2027 8.56544 26.7004 8.63025 27.2314ZM17.9451 27.2314H11.4864L8.92344 25.2459C8.91844 25.2375 8.91281 25.2295 8.90775 25.2212C8.89688 25.2032 8.88525 25.1858 8.87412 25.1681C8.76237 24.9887 8.63944 24.8168 8.50525 24.6539L8.50206 24.65C8.45969 24.5987 8.41575 24.5486 8.37125 24.499C8.36206 24.4888 8.35319 24.4785 8.34394 24.4683C8.32913 24.4522 8.31525 24.4352 8.30025 24.4192L8.51706 23.6898L11.9844 26.2903H17.9452L17.9451 27.2314ZM26.3529 28.3922C26.3529 29.8626 25.1567 31.0588 23.6863 31.0588C22.2158 31.0588 21.0196 29.8626 21.0196 28.3922C21.0196 28.3191 21.0226 28.2458 21.0288 28.1725H21.9756C21.9663 28.2451 21.9608 28.3183 21.9608 28.3922C21.9608 29.3435 22.7348 30.1177 23.6863 30.1177C24.6377 30.1177 25.4118 29.3436 25.4118 28.3922C25.4118 28.3183 25.4062 28.2451 25.3969 28.1725H26.3438C26.3499 28.2458 26.3529 28.3192 26.3529 28.3922ZM24.4706 28.3922C24.4706 28.8247 24.1188 29.1765 23.6863 29.1765C23.2537 29.1765 22.9019 28.8247 22.9019 28.3922C22.9019 28.3173 22.9127 28.2435 22.9335 28.1725H24.4389C24.4599 28.2435 24.4706 28.3172 24.4706 28.3922ZM28.1726 27.2314H18.8862V22.2805C19.4198 22.782 20.1371 23.0903 20.9254 23.0903H25.0226C26.1189 23.0903 26.7194 22.2453 26.746 21.4107C26.7487 21.3258 26.7451 21.2405 26.7358 21.1555C27.3013 21.5417 27.7467 22.1022 27.9849 22.7769C28.1094 23.1278 28.1725 23.4971 28.1725 23.8745L28.1726 27.2314ZM23.8431 19.6392V14.9333H26.0392V15.7177H26.9804V14.9333H28.2353V15.7177H29.1764V14.9333H31.0588V19.6392H23.8431Z" fill="black"/>
<path id="Vector_28" d="M31.9685 22.5254H30.1489V23.4666H31.9685V22.5254Z" fill="black"/>
<path id="Vector_29" d="M31.9685 24.8784H30.1489V25.8196H31.9685V24.8784Z" fill="black"/>
<path id="Vector_30" d="M31.9685 27.2314H30.1489V28.1726H31.9685V27.2314Z" fill="black"/>
<g id="Group_2">
<path id="Vector_31" d="M3.5387 26.1815L2.93701 25.4578C3.45945 25.0235 4.12101 24.7844 4.79976 24.7844V25.7256C4.34032 25.7256 3.89245 25.8875 3.5387 26.1815Z" fill="white"/>
<path id="Vector_32" d="M23.937 26.2902H22.9958V25.349H23.937V26.2902ZM22.0546 26.2902H19.8271V23.9373H20.7683V25.349H22.0546V26.2902Z" fill="white"/>
<path id="Vector_33" d="M27.2312 23.8745H26.29V25.3176H27.2312V23.8745Z" fill="white"/>
<path id="Vector_34" d="M20.3294 14.3374H19.3882V16.157H20.3294V14.3374Z" fill="white"/>
<path id="Vector_35" d="M30.1173 18.6981H28.0781V17.7569H29.1762V16.6589H30.1173V18.6981Z" fill="white"/>
<path id="Vector_36" d="M19.1987 4.78547L19.1982 4.77535C19.184 4.43072 19.0791 4.09185 18.8945 3.79541L19.6936 3.2981C19.963 3.73097 20.1167 4.2266 20.1383 4.73166L20.1387 4.74335L19.6574 4.75941L19.1987 4.78547Z" fill="white"/>
<path id="Vector_37" d="M18.0391 1.88232H15.9058V2.82351H18.0391V1.88232Z" fill="white"/>
</g>
</g>
<defs>
<clipPath id="clip0_1149_13866">
<rect width="32" height="32" fill="white"/>
</clipPath>
</defs>
</svg>
