<?xml version="1.0" encoding="utf-8"?>
<!-- Generator: Adobe Illustrator 25.2.3, SVG Export Plug-In . SVG Version: 6.00 Build 0)  -->
<svg version="1.1" id="Layer_1" xmlns="http://www.w3.org/2000/svg" xmlns:xlink="http://www.w3.org/1999/xlink" x="0px" y="0px"
	 viewBox="0 0 63.1 70.4" style="enable-background:new 0 0 63.1 70.4;" xml:space="preserve">
<style type="text/css">
	.st0{fill:#FFFFFF;}
	.st1{fill:#2680FF;}
	.st2{fill:#FAAD17;}
	.st3{fill:none;stroke:#B2B2B2;stroke-width:5;stroke-miterlimit:10;}
	.st4{fill:none;stroke:#2680FF;stroke-width:5;stroke-miterlimit:10;}
	.st5{fill:#B2B2B2;}
	.st6{fill:#4D4D4D;}
	.st7{fill:none;stroke:#2680FF;stroke-width:4;stroke-miterlimit:10;}
</style>
<g id="Thin-S_00000025411249834160484950000015034664585173277097_" transform="matrix(1 0 0 1 814.015 696)">
	<g>
		<path class="st1" d="M-767.1-641.9c1.6,0,2.9-0.6,4.1-1.7c1.1-1.2,1.7-2.5,1.7-4.1s-0.6-2.9-1.7-4.1c-1.2-1.1-2.5-1.7-4.1-1.7
			s-2.9,0.6-4.1,1.7c-1.2,1.2-1.7,2.5-1.7,4.1s0.6,2.9,1.7,4.1C-770-642.4-768.7-641.9-767.1-641.9z M-767.1-630.1
			c2.2,0,4.1-0.4,5.7-1.3c1.6-0.9,3-2.1,4.2-3.6c-1.6-1-3.2-1.7-4.8-2.2c-1.6-0.5-3.3-0.7-5-0.7c-1.7,0-3.4,0.2-5,0.7
			c-1.6,0.5-3.3,1.2-4.8,2.2c1.2,1.5,2.6,2.7,4.2,3.6C-771.1-630.6-769.2-630.1-767.1-630.1z M-767.1-625.6c-4.5,0-8.4-1.6-11.5-4.7
			c-3.1-3.2-4.7-7-4.7-11.4c0-4.5,1.6-8.4,4.7-11.5s7-4.7,11.4-4.7c4.5,0,8.4,1.6,11.5,4.7c3.1,3.2,4.7,7,4.7,11.4
			c0,4.5-1.6,8.4-4.7,11.5C-758.8-627.1-762.6-625.6-767.1-625.6z M-787.1-626.2c-0.3-0.1-0.5-0.1-0.6-0.2c-0.1,0-0.3-0.1-0.6-0.2
			c-7.3-2.6-13.4-7.4-18.3-14.4c-4.9-7-7.4-14.9-7.4-23.7v-16.8c0-1.4,0.4-2.8,1.2-3.9c0.8-1.2,1.9-2,3.2-2.5l20.9-7.7
			c0.9-0.3,1.6-0.4,2.4-0.4s1.5,0.1,2.4,0.4l20.7,7.7c1.3,0.5,2.4,1.3,3.2,2.5c0.8,1.2,1.2,2.5,1.2,3.9v16.8
			c-0.5-0.3-1.2-0.5-2.1-0.7c-0.9-0.2-1.6-0.4-2.3-0.5v-15.8c0-0.5-0.1-1-0.4-1.4c-0.3-0.4-0.7-0.7-1.2-0.9l-20.8-7.6
			c-0.2-0.1-0.5-0.1-0.8-0.1s-0.6,0-0.8,0.1l-21,7.6c-0.5,0.2-0.9,0.5-1.2,0.9c-0.3,0.4-0.4,0.9-0.4,1.4v17c0,4,0.6,7.8,1.7,11.2
			c1.1,3.5,2.6,6.6,4.5,9.4c1.9,2.8,4.1,5.2,6.6,7.2c2.5,2,5.1,3.5,7.8,4.6l0.2-0.1c0.1,0.9,0.5,1.9,1.1,3c0.6,1.1,1.3,2.1,2.1,2.9
			c-0.3,0.1-0.5,0.2-0.7,0.2C-786.6-626.2-786.8-626.2-787.1-626.2z"/>
	</g>
</g>
</svg>
