<?xml version="1.0" encoding="utf-8"?>
<!-- Generator: Adobe Illustrator 25.2.3, SVG Export Plug-In . SVG Version: 6.00 Build 0)  -->
<svg version="1.1" id="Layer_1" xmlns="http://www.w3.org/2000/svg" xmlns:xlink="http://www.w3.org/1999/xlink" x="0px" y="0px"
	 viewBox="0 0 69.24 69.24" style="enable-background:new 0 0 69.24 69.24;" xml:space="preserve">
<style type="text/css">
	.st0{fill:none;stroke:#2680FF;stroke-width:3;stroke-miterlimit:10;}
	.st1{fill:none;stroke:#2680FF;stroke-width:4;stroke-miterlimit:10;}
	.st2{fill:#2680FF;}
</style>
<path class="st2" d="M47.35,51.33l3.89-3.89L37.48,33.58v-17.4h-5.19v19.47L47.35,51.33z M34.62,69.24c-4.73,0-9.2-0.91-13.42-2.73
	c-4.21-1.82-7.89-4.3-11.04-7.44s-5.63-6.82-7.44-11.04S0,39.35,0,34.62c0-4.73,0.91-9.2,2.73-13.42s4.3-7.89,7.44-11.04
	s6.82-5.63,11.04-7.44S29.89,0,34.62,0c4.73,0,9.2,0.91,13.42,2.73s7.89,4.3,11.04,7.44s5.63,6.82,7.44,11.04
	c1.82,4.21,2.73,8.68,2.73,13.42c0,4.73-0.91,9.2-2.73,13.42c-1.82,4.21-4.3,7.89-7.44,11.04s-6.82,5.63-11.04,7.44
	C43.83,68.34,39.35,69.24,34.62,69.24z M34.62,64.05c8.08,0,15-2.89,20.77-8.66s8.66-12.69,8.66-20.77s-2.89-15-8.66-20.77
	S42.7,5.19,34.62,5.19s-15,2.89-20.77,8.66S5.19,26.54,5.19,34.62s2.89,15,8.66,20.77S26.54,64.05,34.62,64.05z"/>
</svg>
