<?xml version="1.0" encoding="utf-8"?>
<!-- Generator: Adobe Illustrator 26.0.0, SVG Export Plug-In . SVG Version: 6.00 Build 0)  -->
<svg version="1.1" id="Layer_1" xmlns="http://www.w3.org/2000/svg" xmlns:xlink="http://www.w3.org/1999/xlink" x="0px" y="0px"
	 viewBox="0 0 54.89 39.57" style="enable-background:new 0 0 54.89 39.57;" xml:space="preserve">
<style type="text/css">
	.st0{fill:#B2B2B2;}
	.st1{fill:#2680FF;}
	.st2{fill:#FFFFFF;}
</style>
<g id="Thin-S_67_" transform="matrix(1 0 0 1 814.015 696)">
	<g>
		<path class="st0" d="M-809.47-656.43c-1.33,0-2.42-0.43-3.27-1.28c-0.85-0.85-1.28-1.94-1.28-3.27v-30.55
			c0-1.28,0.43-2.34,1.28-3.19c0.85-0.85,1.94-1.28,3.27-1.28h45.79c1.33,0,2.42,0.43,3.27,1.28c0.85,0.85,1.28,1.94,1.28,3.27
			v30.55c0,1.28-0.43,2.34-1.28,3.19c-0.85,0.85-1.94,1.28-3.27,1.28H-809.47z M-786.57-675.18l-24.89-15.08v29.28
			c0,0.58,0.19,1.06,0.56,1.44c0.37,0.37,0.85,0.56,1.44,0.56h45.79c0.58,0,1.06-0.19,1.44-0.56c0.37-0.37,0.56-0.85,0.56-1.44
			v-29.28L-786.57-675.18z M-786.57-679.17l23.93-14.28h-47.87L-786.57-679.17z M-811.46-690.26v-3.19V-690.26v29.28
			c0,0.58,0.19,1.06,0.56,1.44c0.37,0.37,0.85,0.56,1.44,0.56h-2c0,0,0-0.19,0-0.56c0-0.37,0-0.85,0-1.44V-690.26z"/>
	</g>
</g>
</svg>
