<?xml version="1.0" encoding="utf-8"?>
<!-- Generator: Adobe Illustrator 26.0.0, SVG Export Plug-In . SVG Version: 6.00 Build 0)  -->
<svg version="1.1" id="Layer_1" xmlns="http://www.w3.org/2000/svg" xmlns:xlink="http://www.w3.org/1999/xlink" x="0px" y="0px"
	 viewBox="0 0 39.57 37.18" style="enable-background:new 0 0 39.57 37.18;" xml:space="preserve">
<style type="text/css">
	.st0{fill:#B2B2B2;}
	.st1{fill:#2680FF;}
	.st2{fill:#FFFFFF;}
</style>
<g id="Thin-S_65_" transform="matrix(1 0 0 1 814.015 696)">
	<g>
		<path class="st0" d="M-794.23-679.41c-2.34,0-4.31-0.8-5.9-2.39s-2.39-3.56-2.39-5.9c0-2.28,0.8-4.24,2.39-5.86
			c1.6-1.62,3.56-2.43,5.9-2.43c2.34,0,4.31,0.81,5.9,2.43c1.6,1.62,2.39,3.58,2.39,5.86c0,2.34-0.8,4.31-2.39,5.9
			S-791.89-679.41-794.23-679.41z M-814.02-658.82v-3.99c0-0.74,0.25-1.47,0.76-2.19c0.51-0.72,1.21-1.37,2.11-1.96
			c2.66-1.49,5.43-2.63,8.3-3.43c2.87-0.8,5.74-1.19,8.62-1.19c2.87,0,5.74,0.4,8.62,1.19c2.87,0.8,5.64,1.94,8.3,3.43
			c0.9,0.53,1.61,1.17,2.11,1.91c0.51,0.75,0.76,1.49,0.76,2.23v3.99H-814.02z M-811.46-661.37H-777v-1.44
			c0-0.42-0.16-0.82-0.48-1.19c-0.32-0.37-0.77-0.69-1.36-0.96c-2.23-1.33-4.67-2.34-7.3-3.03c-2.63-0.69-5.33-1.03-8.1-1.03
			c-2.76,0-5.46,0.34-8.1,1.03c-2.63,0.69-5.07,1.7-7.3,3.03c-0.58,0.37-1.04,0.73-1.36,1.08c-0.32,0.35-0.48,0.71-0.48,1.08
			V-661.37z M-794.23-681.96c1.6,0,2.95-0.56,4.07-1.67c1.12-1.12,1.68-2.47,1.68-4.07c0-1.59-0.56-2.95-1.68-4.07
			c-1.12-1.12-2.47-1.68-4.07-1.68s-2.95,0.57-4.07,1.72c-1.12,1.14-1.68,2.51-1.68,4.11c0,1.54,0.56,2.87,1.68,3.99
			C-797.18-682.52-795.82-681.96-794.23-681.96z"/>
	</g>
</g>
</svg>
