<?xml version="1.0" encoding="utf-8"?>
<!-- Generator: Adobe Illustrator 25.2.3, SVG Export Plug-In . SVG Version: 6.00 Build 0)  -->
<svg version="1.1" id="Layer_1" xmlns="http://www.w3.org/2000/svg" xmlns:xlink="http://www.w3.org/1999/xlink" x="0px" y="0px"
	 viewBox="0 0 66.3 62.8" style="enable-background:new 0 0 66.3 62.8;" xml:space="preserve">
<style type="text/css">
	.st0{fill:#FFFFFF;}
	.st1{fill:#2680FF;}
	.st2{fill:#FAAD17;}
	.st3{fill:none;stroke:#B2B2B2;stroke-width:5;stroke-miterlimit:10;}
	.st4{fill:none;stroke:#2680FF;stroke-width:5;stroke-miterlimit:10;}
	.st5{fill:#B2B2B2;}
	.st6{fill:#4D4D4D;}
	.st7{fill:none;stroke:#2680FF;stroke-width:4;stroke-miterlimit:10;}
</style>
<g id="Thin-S_00000016041367983619012560000014811069650989882031_" transform="matrix(1 0 0 1 814.015 696)">
	<g>
		<path class="st1" d="M-779.4-633.2c-6.6,0-12.4-1.8-17.6-5.3c-5.2-3.6-9-8.3-11.5-14.4v7.8h-2.6v-12.2h12.2v2.6h-7.5
			c2.1,5.7,5.6,10.3,10.5,13.7c4.9,3.4,10.4,5.2,16.5,5.2c4,0,7.7-0.7,11.2-2.2c3.5-1.5,6.5-3.6,9.2-6.2c2.6-2.6,4.7-5.7,6.2-9.3
			c1.5-3.6,2.2-7.4,2.1-11.5h2.6c0.1,4.4-0.7,8.5-2.4,12.4c-1.6,3.9-3.8,7.2-6.6,10.1c-2.8,2.9-6.1,5.1-9.9,6.8
			C-770.9-634-775-633.2-779.4-633.2z M-792.8-690.2l-1.3-2.2c2.1-1.2,4.4-2.1,7-2.7c2.6-0.6,5.1-0.9,7.7-0.9
			c6.5,0,12.4,1.8,17.7,5.4s9.1,8.4,11.5,14.6v-8.1h2.6v12.2h-12.2v-2.6h7.5c-2-5.6-5.4-10.1-10.4-13.6s-10.5-5.3-16.6-5.3
			c-2.4,0-4.7,0.3-7,0.8C-788.7-692.2-790.8-691.3-792.8-690.2z M-804.4-668.4l-3-6.6l-6.6-3l6.6-3l3-6.6l3,6.6l6.6,3l-6.6,3
			L-804.4-668.4z M-792.5-649.2l11.9-30.8h2.5l12,30.8h-3.5l-3.4-8.8h-12.7l-3.6,8.8H-792.5z M-784.7-660.9h10.5l-5.2-13.6h-0.2
			L-784.7-660.9z"/>
	</g>
</g>
</svg>
