<svg id="Layer_1" data-name="Layer 1" xmlns="http://www.w3.org/2000/svg" viewBox="0 0 71.2 61.46"><defs><style>.cls-1{fill:#2680ff;}</style></defs><path class="cls-1" d="M21.32,9.33a5.27,5.27,0,0,1-1.61-3.86,5.29,5.29,0,0,1,1.61-3.86,5.43,5.43,0,0,1,7.72,0,5.25,5.25,0,0,1,1.61,3.86A5.23,5.23,0,0,1,29,9.33a5.43,5.43,0,0,1-7.72,0ZM31.63,18l-3,3a22.74,22.74,0,0,1-6.45,4.53,18.85,18.85,0,0,1-8.09,1.69v-4.5a13.54,13.54,0,0,0,6.33-1.46,19.55,19.55,0,0,0,4.84-3.49l5.84-5.84a5.71,5.71,0,0,1,6.26-1.09,5.48,5.48,0,0,1,1.69,1.09L48,20.84a5.85,5.85,0,0,1,1.08,1.57,4.39,4.39,0,0,1,.49,2,5,5,0,0,1-.45,2.06A4.61,4.61,0,0,1,48,28.11L37.77,37V52H33.28V33.5L40,26.38ZM67,36.42a14.16,14.16,0,0,1,4.2,10.42A14.35,14.35,0,0,1,56.59,61.46,14.35,14.35,0,0,1,42,46.84,14.33,14.33,0,0,1,56.59,32.23,14.15,14.15,0,0,1,67,36.42ZM64.38,54.64a10.59,10.59,0,0,0,3.15-7.8A10.76,10.76,0,0,0,56.59,35.9a10.76,10.76,0,0,0-11,10.94,10.74,10.74,0,0,0,11,10.94A10.58,10.58,0,0,0,64.38,54.64ZM25,36.42a14.16,14.16,0,0,1,4.2,10.42A14.35,14.35,0,0,1,14.61,61.46,14.35,14.35,0,0,1,0,46.84,14.33,14.33,0,0,1,14.61,32.23,14.17,14.17,0,0,1,25,36.42ZM22.41,54.64a10.59,10.59,0,0,0,3.15-7.8A10.76,10.76,0,0,0,14.61,35.9,10.76,10.76,0,0,0,3.67,46.84,10.74,10.74,0,0,0,14.61,57.78,10.59,10.59,0,0,0,22.41,54.64Z"/></svg>